<svg xmlns="http://www.w3.org/2000/svg" xmlns:xlink="http://www.w3.org/1999/xlink" width="280.377" height="89.117" viewBox="0 0 280.377 89.117">
  <defs>
    <clipPath id="clip-path">
      <rect id="Rectangle_62" data-name="Rectangle 62" width="280.377" height="89.117" fill="none"/>
    </clipPath>
  </defs>
  <g id="Group_60" data-name="Group 60" clip-path="url(#clip-path)">
    <path id="Path_817" data-name="Path 817" d="M279.872,63.638a16.383,16.383,0,0,0-1.742-4.165c-1.055-1.933-2.342-3.155-4.084-2.883-.047.008-.1-.084-.168-.152.266-.8.526-1.6.8-2.4A2.839,2.839,0,0,0,274.83,53a20.98,20.98,0,0,0-2.9-9.687c-.687-1.254-.718-1.206-.447-2.907a4.367,4.367,0,0,0,.05-.946c-.055-.839.2-1.154.721-1.378,1.831-.787,3.131-3.49,3.147-6.373a1.5,1.5,0,0,0,.166-1.206c-.232-1.445-.758-2.7-1.055-4.089a10.183,10.183,0,0,0-1.3-2.951c-.832-1.082-1.35-2.855-2.695-2.8a4.862,4.862,0,0,0-2.066-.835,64.359,64.359,0,0,0-10.091-1.609c-1.152-.04-2.073-.264-2.181-2.48a7.906,7.906,0,0,0-.716-2.176,40.674,40.674,0,0,0-2.413-4.744,2.95,2.95,0,0,0-3.092-1.885c-.116,0-.234.12-.342.088-2.458-.651-4.957-.419-7.428-.827-1.124-.184-2.276-.112-3.392-.26a56.574,56.574,0,0,0-5.744-.383,23.835,23.835,0,0,0-3.065.124,15.4,15.4,0,0,1-5.057-.212,10.767,10.767,0,0,0-3.055.084c-9.512.551-19-.607-28.5-.847a14.669,14.669,0,0,1-3.11-.052,21.285,21.285,0,0,0-5.678-.343,59.415,59.415,0,0,1-7.144-.515c-4.007-.387-8.015-.859-12.036-.855-1.55,0-3.147.347-4.634-.116a20.8,20.8,0,0,0-5.344-.515c-2.816-.148-5.636,0-8.452-.068-4.26-.1-8.515-.307-12.775-.407-3.329-.08-6.66,0-9.988-.1-7.47-.208-14.941-.471-22.408-.711C100.132.974,98.467.954,96.8.9c-1.226-.04-2.46.208-3.7.088C90.415.723,87.723.34,85.028.328,81.413.312,77.8-.008,74.185,0Q64.83.018,55.476.208c-1.16.024-2.344.268-3.479.18a29.237,29.237,0,0,0-4.913.056c-1.352.132-2.773.028-4.013,1.2a2.147,2.147,0,0,1-1.555.515c-2.095.052-4.192.124-6.284.3a3.57,3.57,0,0,0-3.065,1.549c-.434.635-1.076,1.25-1.755,1.2-1.892-.152-3.631.966-5.444,1.445a4.921,4.921,0,0,0-3.1,2.647,1.633,1.633,0,0,1-1.629,1.074c-.921-.032-1.85.28-2.768.22-1.455-.1-2.892.359-4.35.176a3.028,3.028,0,0,0-2.284.823c-.413.359-.142,1.529-.224,2.328-.034.315-.037.635-.053.954-.134,3.075.918,4.488,2.939,4.045a1.534,1.534,0,0,1,1.479.284c.329.319.082,1.022.076,1.545-.024,2.46,1.047,4.169,1.776,6.105a.627.627,0,0,0,.358.351,41.824,41.824,0,0,0,4.828,1.37,18.879,18.879,0,0,0,5.11,0,3.44,3.44,0,0,1,1.745.435.729.729,0,0,1,.479.7c-.026.471-.35.515-.616.551-1.7.236-3.394.431-5.089.711A49.415,49.415,0,0,0,14.7,33.055c-.895.327-1.537.252-1.989-1.054-.342-.982-1.05-.922-1.495-.647A3.12,3.12,0,0,0,9.723,33.23c-.318,2.931-.211,5.778,1.2,8.286,1.229,2.188,2.526,3.977,4.478,4.356.5.1,1.076-.16,1.479.4.513.7-.134,1.4-.113,2.148.079,3.147.163,6.265,2.155,8.621-1.971.272-3.736.563-5.5.727-.534.048-1.139.731-1.621-.092a1.418,1.418,0,0,0-1.971-.659c-1.584.531-1.7.874-1.981,3.294a9.986,9.986,0,0,1-.295,2.955c-.263-.052-.482.116-.684.347-.447.028-.779.667-1.255.535a1.461,1.461,0,0,0-1.081.3c-.874.268-1.818.982-2.6.695C.842,64.74.658,65.91.2,66.636c-.326.515.053,1.234-.024,1.789A18.286,18.286,0,0,0,.44,74.974c.329,1.438.521,3.059,1.484,4.073a3.578,3.578,0,0,0,3.847,1.086c1.345-.371,2.7-.715,4.034-1.146.442-.144.539,0,.639.651.337,2.184.763,4.332,1.11,6.509.326,2.036,1.018,2.136,1.976,1.4a5.838,5.838,0,0,1,2.555-1.062c1.624-.323,3.229-.918,4.847-1.146a15.333,15.333,0,0,0,4.739-1.246c.868-.419,1.5-.248,2.134.831a7.078,7.078,0,0,0,5.336,3.514c.121.032.245.072.366.108.66.3,1.589-.663,1.6-1.665.005-.355-.339-.791.05-1.054.263-.18.413.252.605.439.121.124.266.272.4.264.653-.036.666.471.5,1.214-.195.882-.068,1.441.65,1.278,1.142-.2,2.279.284,3.418,0a16.914,16.914,0,0,0,2.95-.16c.576-.12,1.271.14,1.726-.531a1.263,1.263,0,0,1,1.747-.575c1.216.671,2.252.323,3.426-.351,1.621-.926,3.392-.108,5.1-.415a47.08,47.08,0,0,1,5.092-.339c2.829-.2,5.66-.415,8.489-.631,2.142-.164,4.281-.335,6.42-.5,1.345-.036,2.692-.1,4.036-.1,1.823-.008,3.644.02,5.468.032.718-.256,1.113,1.118,1.837.839a1.05,1.05,0,0,0,1.255.559c.476.012.953.024,1.431.032.947,0,1.892.008,2.839.008a1.333,1.333,0,0,0,.679.088,8.3,8.3,0,0,0,2.037-.084c.132.024.263.012.395.032.039,0,.074.044.116.04l.016-.032a51.032,51.032,0,0,0,5.634.184,25.422,25.422,0,0,0,5.044-.264c.321.064.668.284.96.172,1.674-.623,3.318.292,4.978.124q1.7,0,3.392,0c1.708.483,1.795.4,1.992-2.052.034-.443,0-.934.424-1.026.737-.156,1.471-.363,2.21-.483a1.6,1.6,0,0,1,.5,0c.032.016.063.04.095.052a.464.464,0,0,1,.332.292c.542,1.753,1.61,1.6,2.584,1.829,1.076.691,2.081.112,2.452-1.481a2.562,2.562,0,0,1,.437-.954c.358,0,.713,0,1.071,0,1.345.675,2.734.04,4.092.311-.245,1.37.032,1.925.995,1.957.161,0,.324-.024.368.232a.9.9,0,0,1-.124.455c-.2.375-.6.667-.4,1.238.218.631.655.507,1.045.4,2.75.052,5.5.228,8.247.092,1.163-.056,2.326.052,3.489-.032,1.95-.136,3.907-.06,5.86-.072a4.27,4.27,0,0,0,1.813,0c.558.124.958-.052.905-1.09a1.512,1.512,0,0,1,.284-1.074,2.137,2.137,0,0,0,.284-2.156l.182-.24c.418.112.818-.519,1.245-.064a6.885,6.885,0,0,1,.792,1.206c.479.922.966,2.14,1.971,1.134a.32.32,0,0,1,.418,0c.81.87,1.821-.224,2.629.639.047.052.187-.016.25-.1.353-.451.653-.323,1.05-.016.65.5,1.571-.16,1.489-1.126-.132-1.533.458-1.162.984-1.158a6.1,6.1,0,0,0,.71-.064,19.76,19.76,0,0,1,3.747.339c.279.807.637,1.977,1.195,1.773a16,16,0,0,0,2.458-.743c.36-.2.624-.579,1.042-.3a.571.571,0,0,0,.689-.1c1.274-1.014,2.229-.739,3.165.91.126.22.271.339.463.327.2.02.41.088.539-.252a13.837,13.837,0,0,1,2.718-.232,2.216,2.216,0,0,0,1.46-.288,36.524,36.524,0,0,0,3.892-.435c1.442-.3,2.776.587,4.171.639,2.15.08,4.281.455,6.444.4,3-.076,6.015.854,9-.355a.271.271,0,0,1,.26.064c.687.567,1.468.383,2.189.651,1.171.435,2.376-.252,3.552.355,2.108,1.09,3.286-.487,3.955-2.671.174-.563.384-.639.737-.731.868-.236,1.789.22,2.587-.144,1.576-.719,3.184-.531,4.773-.815.139.052.405.124.4.16-.108,1.793.824,1.23,1.408,1.445a7.6,7.6,0,0,1,2.144.335,1.622,1.622,0,0,0,1.06.24,21.354,21.354,0,0,1,2.676.056c1.326.212,2.647.455,3.979.535a9.584,9.584,0,0,0,3.45.519c.495.527,1.066.176,1.592.323,1.413.695,2.929-.024,4.342.731.1.052.263-.144.4-.224.174-.012.347-.024.521-.04,1.784.056,3.579.044,5.21,1.4a3.6,3.6,0,0,0,2.173.256c.363.108.55-.695,1.055-.272.782.655,1.379.088,1.634-1.3.058-.315.208-.815.339-.4.392,1.23,1.516.966,1.831,2.244h1.26a.759.759,0,0,0,.826.26c.929-.2,1.7-1.042,2.594-1.362a3.436,3.436,0,0,0,1.26-2.18c.292-1.006.584-2.016.879-3.023.31-.148.279-.663.453-.954.292-.491.558-1.378,1.021-1.138,1.363.711,1.76-.815,2.358-2.032.334-.679.466-1.917,1.376-1.422.195.108.239-.339.35-.531a4.4,4.4,0,0,0,.237-2.08c.739.044,1.479.084,2.218.136,1.829.12,3.381-.8,4.652-2.811a4.49,4.49,0,0,0,.863-2.544c.4-.559.187-1.254.192-1.9a3.884,3.884,0,0,0-.376-2.987M97.824,86.789l.016.04h-.016v-.04m82.594-1.545c.05-.072.063-.12.105-.188.016.056,0,.16.032.188Zm63.457-.1.008.036-.029.008.021-.044m10.92,2.444.013-.036.029.06,0,.04-.045-.064m19.177-60.73c-.042-.068-.1-.124-.142-.188a.745.745,0,0,1,.142.188" transform="translate(0 0.001)" fill="#ff5200"/>
  </g>
</svg>
