<svg xmlns="http://www.w3.org/2000/svg" width="36" height="36" viewBox="0 0 36 36">
  <path id="Icon_zocial-itunes" data-name="Icon zocial-itunes" d="M0,18A17.633,17.633,0,0,1,2.412,8.964,17.872,17.872,0,0,1,8.964,2.412,17.633,17.633,0,0,1,18,0a17.633,17.633,0,0,1,9.036,2.412,17.872,17.872,0,0,1,6.552,6.552A17.633,17.633,0,0,1,36,18a17.633,17.633,0,0,1-2.412,9.036,17.872,17.872,0,0,1-6.552,6.552A17.633,17.633,0,0,1,18,36a17.633,17.633,0,0,1-9.036-2.412,17.872,17.872,0,0,1-6.552-6.552A17.633,17.633,0,0,1,0,18Zm3.6,0A13.878,13.878,0,0,0,7.812,28.188,13.878,13.878,0,0,0,18,32.4a13.878,13.878,0,0,0,10.188-4.212A13.878,13.878,0,0,0,32.4,18,13.878,13.878,0,0,0,28.188,7.812,13.878,13.878,0,0,0,18,3.6,13.878,13.878,0,0,0,7.812,7.812,13.878,13.878,0,0,0,3.6,18Zm6.588,6.336A2.643,2.643,0,0,0,12.852,27a2.951,2.951,0,0,0,2.916-2.916V14.4l7.2-1.332v7.488a3.2,3.2,0,0,0-1.008-.18,2.951,2.951,0,0,0-2.916,2.916,2.6,2.6,0,0,0,.756,1.89,2.512,2.512,0,0,0,1.872.774,2.842,2.842,0,0,0,2-.828,2.712,2.712,0,0,0,.918-1.944V9l-10.44,1.8V21.6a3.2,3.2,0,0,0-1.008-.18,2.845,2.845,0,0,0-2.088.864,2.8,2.8,0,0,0-.864,2.052Z" transform="translate(0)" fill="#ffffff"/>
</svg>
