<svg xmlns="http://www.w3.org/2000/svg" width="36" height="36.008" viewBox="0 0 36 36.008">
  <path id="Icon_simple-googlepodcasts" data-name="Icon simple-googlepodcasts" d="M2.25,14.52A2.247,2.247,0,0,0,0,16.77v2.445a2.25,2.25,0,1,0,4.5,0V16.77A2.247,2.247,0,0,0,2.25,14.52Zm31.5,0a2.247,2.247,0,0,0-2.25,2.25v2.445a2.25,2.25,0,0,0,4.5,0V16.77A2.247,2.247,0,0,0,33.75,14.52ZM10.02,21.885a2.247,2.247,0,0,0-2.25,2.25V26.58a2.25,2.25,0,0,0,4.5,0V24.15a2.247,2.247,0,0,0-2.25-2.25Zm0-14.73a2.247,2.247,0,0,0-2.25,2.25v8.04a2.25,2.25,0,0,0,4.5,0V9.39a2.247,2.247,0,0,0-2.25-2.25Zm15.96,0a2.247,2.247,0,0,0-2.25,2.25v2.46a2.25,2.25,0,0,0,4.5,0V9.4a2.247,2.247,0,0,0-2.25-2.25ZM18,0a2.247,2.247,0,0,0-2.25,2.25V4.695a2.25,2.25,0,0,0,4.5,0V2.25A2.247,2.247,0,0,0,18,0Zm0,29.04a2.247,2.247,0,0,0-2.25,2.25v2.46a2.25,2.25,0,1,0,4.5.015v-2.46A2.257,2.257,0,0,0,18,29.055Zm7.98-12.69a2.257,2.257,0,0,0-2.25,2.25v8a2.25,2.25,0,0,0,4.5,0v-8A2.247,2.247,0,0,0,25.98,16.35ZM18,9.195a2.257,2.257,0,0,0-2.25,2.25v13.1a2.25,2.25,0,1,0,4.5,0V11.46A2.247,2.247,0,0,0,18,9.21Z" fill="#ffffff"/>
</svg>
