<svg xmlns="http://www.w3.org/2000/svg" xmlns:xlink="http://www.w3.org/1999/xlink" width="196.001" height="72.236" viewBox="0 0 196.001 72.236">
  <defs>
    <clipPath id="clip-path">
      <rect id="Rectangle_48" data-name="Rectangle 48" width="196.001" height="72.236" fill="none"/>
    </clipPath>
  </defs>
  <g id="Group_44" data-name="Group 44" clip-path="url(#clip-path)">
    <path id="Union_3" data-name="Union 3" d="M86.355,72.237H66.471a.715.715,0,0,0-.23-.47.709.709,0,0,1,.228.468.985.985,0,0,0-.812-.244c-.083,0-.167,0-.249,0-5.8-.38-11.61-.18-17.411-.331-4.626-.121-9.249-.231-13.874-.208-3.58.017-7.133.642-10.72.521-1.789-.059-3.578-.139-5.359-.295a2.387,2.387,0,0,1-2.078-.895h0a.28.28,0,0,0-.065-.161v0a8.877,8.877,0,0,1-5.138-2.156h0c.194.017.383.041.571.069a6.387,6.387,0,0,0,.595.385,21.833,21.833,0,0,0,3.743,1.471c.044.017.092.034.136.052-.023.059,0,.118.092.179-.087-.062-.115-.121-.091-.179v0l.08.028-.08-.029v-.009c.034-.06.067-.09.1-.091q-.408-.292-.834-.538.426.246.833.538c-.034,0-.067.03-.1.091v.009l-.044-.016.044.017v0c-.044-.017-.092-.034-.136-.053a21.884,21.884,0,0,1-3.739-1.469l-.007,0a6.8,6.8,0,0,1-.59-.382h0l0,0c-.189-.026-.379-.051-.571-.068-1.4-.509-2.81-.993-4.2-1.532a11.491,11.491,0,0,1-3.107-2.048C2.046,64.1,1.781,62.7,1.441,61.369.932,59.387.477,57.392,0,55.4H0V43.18c.8-.142.568-.776.672-1.258C.566,42.4.8,43.036,0,43.18a11.833,11.833,0,0,0,.461-4.121C.3,35.4.463,31.748.593,28.1c.2-5.725.591-11.449,2.81-16.877.318-.78.41-1.676,1.18-2.241v0h0A28.291,28.291,0,0,1,6.9,5.311a2.308,2.308,0,0,1,3.154-.757c.635.278,1.253.586,1.878.879h0c3.117.2,6.1-.686,9.085-1.248A102.6,102.6,0,0,1,32.716,3c15.589-1.123,31.21-1.208,46.83-1.262.659,0,1.321-.059,1.981-.093a1.213,1.213,0,0,0,.1.083,1.129,1.129,0,0,1-.1-.083l.078,0-.079,0a.8.8,0,0,1,.751-.287c2.6.151,5.181-.2,7.772-.284C98.873.806,107.7.813,116.522.82c5.685,0,11.37.008,17.054-.061,2.394-.028,4.8-.2,7.2-.228.422-.006.89.053.965-.532a.455.455,0,0,1,.017.537A.455.455,0,0,0,141.746,0h14.2a2.287,2.287,0,0,0,2.109.733,6.04,6.04,0,0,1,.808.03,58.557,58.557,0,0,0,7.538.318c1.3,0,2.6,0,3.9.041a16.833,16.833,0,0,1,4.957.543h0a46.383,46.383,0,0,1,6.252,1.056c-.007.065-.014.131-.02.2a1.993,1.993,0,0,0-.236-.07,1.661,1.661,0,0,1-.447-.088,20.971,20.971,0,0,0-3.885-.7c-.508-.042-1.018-.073-1.528-.106.509.033,1.019.064,1.528.106a20.973,20.973,0,0,1,3.885.7,1.741,1.741,0,0,0,.447.088c.081.017.159.044.236.069,0,.032-.005.065-.009.1h0l.01-.1c.005-.063.013-.131.018-.2a.187.187,0,0,1,.067.177.181.181,0,0,0-.067-.177,1.96,1.96,0,0,1,1.089.126,2.443,2.443,0,0,0,.851.161.9.9,0,0,0,.231.212h0a.9.9,0,0,1-.232-.212c.575-.3,1.19-.483,1.465.285.253.708,1.27.547,1.427,1.289a3.3,3.3,0,0,0-.893-.387,3.268,3.268,0,0,1-.791-.69,3.312,3.312,0,0,0,.785.69h0a3.234,3.234,0,0,1,.893.389,2.347,2.347,0,0,0,1.423.3,1.718,1.718,0,0,0,.767-.288c.567-.315,1.132-.629,1.505.557a.959.959,0,0,0-.553-.3,1.023,1.023,0,0,0-.76.018,1.017,1.017,0,0,1,.758-.017.838.838,0,0,1,.186.115.853.853,0,0,0-.186-.115.963.963,0,0,1,.555.3c2.066.647,2.066.647,1.975,3.527-.059.132-.122.264-.176.4a3.688,3.688,0,0,1-.211,1.09,5.137,5.137,0,0,0-.131.529h0a5.283,5.283,0,0,1,.133-.531h0a3.743,3.743,0,0,0,.21-1.09q.08-.2.174-.393s0,0,0,0v0a.016.016,0,0,1,0,0c.5.719.014,1.3-.29,1.912a62.013,62.013,0,0,1,.9,8.688c1.13.61.949,1.361.255,2.169,0,.18.009.362.018.544h0a7.743,7.743,0,0,1,.547,2.652A7.743,7.743,0,0,0,192.894,22c.707.909,1.165,1.86.537,2.99a2.242,2.242,0,0,0,.016.265c.006.055.01.11.013.165,0-.054-.007-.11-.012-.165a1.116,1.116,0,0,1,.284.785,1.116,1.116,0,0,0-.284-.785c1.38.684.153,1.637.278,2.452.005.27.013.538.018.807h0a.007.007,0,0,0,0,0l0,0c1.212.495.2,1.269.261,1.907h0a.008.008,0,0,0,0,0c.1.993.2,1.987.3,2.979.542.575-.026,1.292.264,1.9l.005.007c-.3-.608.277-1.33-.268-1.907,1.01.517.334,1.251.268,1.907q.011,3.12.019,6.241v0a1.257,1.257,0,0,1,0,2.163v0q0,2.586,0,5.169v0a10.217,10.217,0,0,1,.381,1.751,7.143,7.143,0,0,1,.053.831,7.143,7.143,0,0,0-.053-.831,4.318,4.318,0,0,1-.013,1.773,4.192,4.192,0,0,1-.361.992v0l0,0v.352q-.008,1.9-.016,3.81.706.408,1.415.814v4.888h0a1.947,1.947,0,0,0-.574,1.732,1.568,1.568,0,0,1-1.316,1.7,1.964,1.964,0,0,0-1.544,1.188,10.347,10.347,0,0,1-1.154,1.53c-.815,1-1.672,1.311-2.63.136-.165-.2-.516-.513-.651-.461a4.418,4.418,0,0,1-2.841-.114,6.545,6.545,0,0,0-1.859-.307c-2.41.065-4.818-.033-7.226-.132-2.156-.088-4.314-.176-6.473-.147l-1.292.034h0l-3.4.007h0a.928.928,0,0,1-.757.534,17.812,17.812,0,0,1-7.519-.122,8.462,8.462,0,0,0-1.672-.149h0l-3.97.01a2.871,2.871,0,0,1-1.438.36h0a2.854,2.854,0,0,0,1.438-.36,2.1,2.1,0,0,1-3.129.261c.257.011.515.036.774.058h-.007c-.257-.022-.512-.045-.767-.057-.377,0-.754.009-1.131.012h0c-.491.773-1.285.771-2.106.818-2.471.136-4.917.528-7.393.662a2.319,2.319,0,0,1-.976-.2,2.6,2.6,0,0,0-.738-.2h-.156l.006,0h0l-.006,0-.557,0c-.6,1.307-1.49.411-2.279.267h0l-.844.01h0c-.69,1.549-1.677.445-2.563.261a1.43,1.43,0,0,1,.3-.047,1.43,1.43,0,0,0-.3.047,1.815,1.815,0,0,1,.42-.177h0a1.9,1.9,0,0,0-.419.178c-.47,0-.942.01-1.412.013-.061.007-.123.007-.183.009h0c-.213.009-.428,0-.643-.008.214.01.429.018.642.009h0c.06,0,.123,0,.185-.007a1.878,1.878,0,0,1-.8.325h0a1.889,1.889,0,0,0,.807-.326c-.787,1.034-1.47,1.1-2.848.256a2.158,2.158,0,0,1,.288-.126l.149.053-.149-.053h0c-.169-.061-.34-.126-.508-.192.169.065.337.131.507.192a2.01,2.01,0,0,0-.288.124L123,70.9l-.4,0,.4,0c-.022.484-.433.594-.789.618a27.289,27.289,0,0,1-5,.316,32.97,32.97,0,0,0-3.881-.133c-.444,0-.888,0-1.33,0-1.979-.017-3.958-.008-5.936,0a2.129,2.129,0,0,1-1.8-.54l-.006,0h0c.172-.028.344-.043.513-.065a4.873,4.873,0,0,0,1.441.214h.139c-.048,0-.092,0-.139,0a4.841,4.841,0,0,1-1.441-.213,40.878,40.878,0,0,1,6.1-.187c1.033.019,2.065.038,3.1.019,2.607-.052,5.214-.03,7.822-.025-2.606,0-5.215-.027-7.822.024-1.034.02-2.069,0-3.1-.019a40.928,40.928,0,0,0-6.093.188h0c-.172.022-.343.039-.514.065-.38,0-.759.007-1.14.009h0c-.66.767-1.85.395-2.551,1.076h-14.2Zm.13-.074h0a1.544,1.544,0,0,1,.222-.121A1.514,1.514,0,0,0,86.486,72.164Zm1.826-.184c4.722-.161,9.414-.838,14.146-.817-.227.083-.451.168-.685.231-.174.048-.369.078-.552.127.183-.049.378-.079.552-.127.234-.063.46-.148.685-.231.217,0,.434-.005.65,0-.12,0-.24,0-.358,0h-.517C97.577,71.162,92.958,71.82,88.312,71.979Zm7.494-.137h0Zm.12-.005.042,0Zm.581-.024h0Zm.281-.011h0Zm.034,0,.256-.009Zm.256-.009c1.378-.048,2.771-.088,4.144-.272C99.847,71.7,98.456,71.744,97.078,71.792Zm-30.843-.031-.006-.005Zm-1.8-.136q-.214,0-.427,0Q64.221,71.626,64.435,71.626ZM87.7,71.515c6.652-.368,13.3-.818,19.958-.962C100.994,70.7,94.347,71.147,87.7,71.515Zm30.513-.073a10.374,10.374,0,0,0,3.51-.182A2.883,2.883,0,0,0,123,70.9a2.868,2.868,0,0,1-1.278.363,10.427,10.427,0,0,1-3.51.184Zm-94.691.05h0Zm-.16,0c-1.272,0-2.545-.036-3.819-.11C20.813,71.456,22.086,71.49,23.358,71.492Zm.488,0,.3,0h0Zm.527-.006h0l.124,0Zm-5.133-.121Zm-.07-.007a21.117,21.117,0,0,1-2.142-.328l.006,0A21.414,21.414,0,0,0,19.17,71.357Zm90.591-.035h0Zm1.108,0-.468,0,.469,0q.959,0,1.919-.006h0Q111.829,71.313,110.869,71.318Zm-5.94-.005c.473-.007.944-.007,1.417-.012C105.872,71.306,105.4,71.3,104.929,71.313Zm-45.761-.481c4.436.109,8.87.416,13.318.462,9.655.1,19.281-.331,28.906-1.03,3.023-.22,6.063-.178,9.1-.128-3.039-.052-6.079-.094-9.1.126-9.625.7-19.25,1.13-28.906,1.03-4.448-.046-8.88-.354-13.318-.46-9.7-.234-19.4-.211-29.1-.01-4.3.087-8.588.438-12.871-.174a7.614,7.614,0,0,1,3.713-.244,16.764,16.764,0,0,0,1.689.112c-.558,0-1.12-.056-1.681-.112a7.634,7.634,0,0,0-3.721.243c-.049-.007-.1-.011-.146-.017a1.961,1.961,0,0,0-.732,0,1.994,1.994,0,0,1,.733,0c.047.007.1.011.144.017-.063.026-.126.048-.188.077a.991.991,0,0,1-.689-.092,1,1,0,0,0,.689.094c.063-.03.125-.052.188-.078,4.28.613,8.572.263,12.871.173q7.392-.152,14.785-.157Q52.012,70.664,59.168,70.832Zm47.177.469.49,0Zm.733-.007.229,0Zm-48.049-.021q-.95-.042-1.9-.069Q58.08,71.232,59.029,71.273Zm-27.059-.12c-.522.036-1.044.069-1.565.1h.006c.52-.031,1.038-.065,1.559-.1l.306-.021Zm70.779.1q.181-.042.36-.089Q102.93,71.207,102.749,71.249ZM56.978,71.2l-.089,0Zm-23.654-.131h0Zm.039,0c1.6-.088,3.209-.138,4.817-.138h0C36.572,70.929,34.965,70.979,33.363,71.067Zm71.29-.019c-.058-.021-.115-.042-.173-.067C104.537,71.006,104.595,71.028,104.653,71.048Zm-87.637-.022a5.425,5.425,0,0,1-.5-.219c-.039-.023-.076-.046-.113-.071.037.025.074.049.113.073.161.081.328.151.492.215Zm109.548-.009h0Zm-.124,0a2.448,2.448,0,0,1-.33-.032A2.448,2.448,0,0,0,126.439,71.017Zm.239-.007a1.791,1.791,0,0,0,.343-.064A1.794,1.794,0,0,1,126.678,71.01Zm.343-.064a4.314,4.314,0,0,1-1.145-.008A4.234,4.234,0,0,0,127.021,70.946Zm-1.145-.008-.008,0a7.773,7.773,0,0,0-.83-.061A7.672,7.672,0,0,1,125.876,70.938ZM104.3,70.924a2.384,2.384,0,0,0-.537-.072A2.439,2.439,0,0,1,104.3,70.924Zm18.286-.03ZM15.968,70.777a1.056,1.056,0,0,1,.3-.132h0a.348.348,0,0,1,.049-.01c-.016,0-.033,0-.049.009l-.094-.062.094.062a1.029,1.029,0,0,0-.3.134Zm59.5-.015c4.64.014,9.278.028,13.912-.32-4.619.345-9.244.332-13.869.319-1.525,0-3.049-.009-4.573,0q.93,0,1.86,0Q74.135,70.757,75.47,70.762Zm-12.882-.4c2.657.257,5.3.4,7.959.4-2.659,0-5.3-.146-7.959-.405a45.969,45.969,0,0,0-4.972-.122c-.645.008-1.291.015-1.935.012.641,0,1.283,0,1.926-.011.544-.006,1.087-.012,1.63-.012C60.361,70.224,61.48,70.251,62.589,70.36Zm60.279.386Zm8-.057-.089,0Zm-.123,0a1.923,1.923,0,0,1-.386-.052A1.923,1.923,0,0,0,130.745,70.692Zm.237-.015.033-.006h0Zm-.093,0a4.528,4.528,0,0,1-.639-.062l-.032-.009.031.009A4.456,4.456,0,0,0,130.889,70.675Zm-114.7-.087.081.025c-.028-.01-.055-.018-.08-.025l-.017-.007Zm109.877.011c.081,0,.162-.006.244-.006h0C126.227,70.593,126.146,70.595,126.065,70.6ZM16.172,70.581a.534.534,0,0,0-.051-.034l.051.034Zm0,0c-.089-.036-.176-.069-.264-.108v0c-.034-.012-.066-.024-.1-.038.031.014.063.026.1.04h0C16,70.512,16.083,70.545,16.172,70.581Zm113.735-.013c-.063-.006-.126-.011-.189-.013C129.781,70.557,129.844,70.561,129.907,70.568Zm-.29-.014h0Zm-14.547-.013q-1.546-.032-3.089-.032Q113.525,70.509,115.071,70.54Zm-5.245-.021q.99-.011,1.979-.011h0Q110.814,70.507,109.825,70.518Zm-78.862-.283c-2.786.02-5.567.276-8.362.28,2.794,0,5.576-.259,8.362-.278,8.113-.057,16.226-.07,24.339.007q-6.042-.058-12.084-.055Q37.091,70.19,30.964,70.236Zm-14.979.259-.077-.027h0Zm113.846-.013-.165-.056h0Zm-40.448-.04c5.561-.418,11.121-.868,16.709-.766,5.726.1,11.446-.08,17.164-.306,1.708-.068,3.421-.175,5.127-.344-1.706.169-3.419.276-5.128.344-5.717.227-11.437.409-17.163.305q-.81-.015-1.619-.014C99.43,69.66,94.406,70.063,89.383,70.442ZM134.89,70.1a1.151,1.151,0,0,1-.776.26A1.149,1.149,0,0,0,134.89,70.1Zm-3.948.244.057,0-.052,0c-.132-.006-.263-.011-.395-.013C130.682,70.329,130.812,70.335,130.942,70.34Zm53.31-2.608c-9.277.092-18.553.234-27.83.314-10.242.09-20.375,1.5-30.569,2.189l-.546.036.548-.036c10.192-.689,20.327-2.1,30.569-2.189,9.276-.081,18.551-.222,27.829-.314h0Zm-51.3,2.537c.042,0,.085,0,.127,0h0C133.037,70.265,132.994,70.266,132.952,70.27Zm-17.936-.08h0c-1.287,0-2.574-.021-3.862-.042C112.442,70.169,113.73,70.189,115.016,70.189Zm67.836-3.012c-2.412.053-4.821.2-7.226.249-7.425.146-14.85-.017-22.276.286-5.106.207-10.2.536-15.273,1.029-7.227.7-14.451,1.362-21.716,1.44,7.266-.078,14.49-.735,21.716-1.438,5.077-.5,10.168-.824,15.273-1.031,7.426-.3,14.851-.138,22.276-.285,2.406-.048,4.814-.2,7.226-.248a13.275,13.275,0,0,1,2.036.162,12.151,12.151,0,0,0,2.251.155,12.083,12.083,0,0,1-2.25-.156,14.315,14.315,0,0,0-1.875-.165Zm-51.01,2.993a1.671,1.671,0,0,1,.718-.131c.144.037.288.078.431.118l0,0-.434-.117h-.044A1.621,1.621,0,0,0,131.843,70.171Zm2.894-.073.037-.023h0Zm1.44-.231c-.23.055-.456.117-.686.192h0c.227-.074.456-.137.685-.192h0l-.055-.008Zm52.665-.686a2.392,2.392,0,0,1,.161.21,1.275,1.275,0,0,0,.76.584,1.274,1.274,0,0,1-.758-.584c-.053-.078-.109-.146-.162-.211a4.65,4.65,0,0,1,.778.516,4.528,4.528,0,0,0-.778-.516,5.347,5.347,0,0,0-1.179-.451h0l-.074.018.072-.017A5.27,5.27,0,0,1,188.842,69.18Zm1.552.582a.849.849,0,0,1-.36.09A.846.846,0,0,0,190.393,69.762Zm-170.982.065Zm116.256-.041-.092,0Zm53.29-.95c.519.841.875,1.065,1.375.763-.5.3-.857.077-1.375-.764a3.457,3.457,0,0,0-.345-.5A3.465,3.465,0,0,1,188.957,68.836Zm1.39.754,0,0Zm-47.61-.021-.115.019h.006l.109-.019a6.139,6.139,0,0,1,.871-.08A6.139,6.139,0,0,0,142.737,69.569Zm48.033-.051a5.223,5.223,0,0,0,1.014-1.1A5.311,5.311,0,0,1,190.769,69.518Zm-47.1-.032h0c.559-.049,1.133-.038,1.7-.092h0C144.807,69.446,144.232,69.436,143.671,69.485Zm-2.545-.167Zm.333-.044c1.651-.2,3.333-.2,5.006-.272C144.793,69.073,143.111,69.071,141.459,69.274Zm49.266-.681c-.3.425-.537.651-.774.651C190.188,69.245,190.429,69.019,190.725,68.594Zm-1.882.586a1.238,1.238,0,0,0-.678-.459A1.246,1.246,0,0,1,188.843,69.179Zm-39.181-.1Zm-.593-.018-.292-.022h0Zm42.036-.156-.046.05.046-.05ZM186,68.878c.132.018.27.039.409.054-.138-.015-.276-.035-.407-.054a79.2,79.2,0,0,0-12.286-.571q1.2-.019,2.4-.02A71.243,71.243,0,0,1,186,68.878Zm-38.077-.18a2.771,2.771,0,0,0,.338.163,2.922,2.922,0,0,1-.338-.163Zm11.3.129q.219.015.438.027-.218-.012-.436-.027l-.352-.027.35.027c-.6-.034-1.2-.079-1.8-.123C158.027,68.748,158.626,68.793,159.225,68.827ZM146.8,68.8l.027-.01Zm3.922-.036.077-.035h0Zm-.7-.055c.214.011.427.022.64.022-.212,0-.425-.011-.637-.022s-.424-.022-.635-.022C149.6,68.688,149.813,68.7,150.024,68.71ZM149.4,67.3c-6.1.192-12.181.791-18.253,1.436,6.072-.646,12.153-1.244,18.253-1.434,5.952-.187,11.909-.527,17.871-.344a21.432,21.432,0,0,0,2.473-.021,21.651,21.651,0,0,1-2.473.02q-1.792-.055-3.584-.052C158.922,66.9,154.159,67.147,149.4,67.3Zm1.99,1.128c-.182.106-.365.2-.548.286.184-.085.367-.18.548-.286.229-.033.459-.056.689-.072C151.85,68.367,151.621,68.39,151.391,68.423Zm3.7.276a4.676,4.676,0,0,1,2.077-.013,4.658,4.658,0,0,0-2.077.013Zm31.6-.008a2,2,0,0,0,.456-.072q.133.022.265.051-.13-.028-.26-.052h-.006A2,2,0,0,1,186.691,68.691Zm4.034-.1c.528-.755.469-1.854,1.416-2.327C191.195,66.74,191.25,67.838,190.725,68.594Zm-5.056-.119c.081.031.162.057.242.095-.08-.038-.161-.063-.242-.095.351.015.7.038,1.052.081-.349-.044-.7-.067-1.05-.081a5.389,5.389,0,0,0-2.032-.326,5.389,5.389,0,0,1,2.031.326c-.535-.023-1.067-.023-1.579-.037C184.6,68.452,185.135,68.452,185.669,68.475ZM156.7,68.438c.18.012.358.024.534.024-.176,0-.354-.012-.533-.025-.207-.014-.414-.028-.618-.022h.092C156.349,68.414,156.525,68.426,156.7,68.438Zm.592.024c2.4-.035,4.809-.024,7.21-.024h0l-2.982,0C160.112,68.436,158.7,68.441,157.293,68.462Zm11.147-.031h0a1,1,0,0,1,.214-.145A.983.983,0,0,0,168.439,68.431Zm15.353,0c-1.465-.057-2.93-.125-4.4-.19C180.864,68.3,182.328,68.37,183.793,68.427Zm7.991-.009c.108-.155.21-.315.3-.478q.078-.138.161-.268c-.055.086-.109.175-.161.267-.094.163-.2.323-.3.479Zm-1.2-.649c-.241.574-.692.779-1.212.279C189.893,68.548,190.344,68.345,190.586,67.769Zm-35.519.558Zm9.983-.122c-.057.03-.115.057-.173.083.058-.026.115-.052.173-.081a6.275,6.275,0,0,1,1.442-.156A6.283,6.283,0,0,0,165.05,68.2Zm4.883,0,1.328-.007-1.328.006c-.105,0-.213-.006-.32-.013C169.72,68.2,169.827,68.2,169.933,68.2Zm11.927-.014h0c-.836-.008-1.67-.01-2.5-.01C180.191,68.18,181.026,68.182,181.86,68.19Zm-3.779-.01h0c-2.635-.112-5.271-.2-7.909-.166q.544-.006,1.088-.006C173.535,68.008,175.809,68.084,178.081,68.179Zm12.663-.917a6.339,6.339,0,0,1,1.931-1.882,6.325,6.325,0,0,0-1.931,1.881,1.245,1.245,0,0,1-1.459.693A1.245,1.245,0,0,0,190.744,67.262Zm-1.459.692a2.505,2.505,0,0,0-.439-.391,2.524,2.524,0,0,1,.439.391Zm0,0a1.5,1.5,0,0,1-.385-.2A1.464,1.464,0,0,0,189.285,67.954Zm-2.327-.036.013-.006Zm.048-.023-.032.016.034-.017c.049-.026.1-.049.144-.072Q187.081,67.856,187.006,67.895Zm-1.59-.01-.054-.01Zm-.054-.01a6.591,6.591,0,0,0-.975-.14A6.694,6.694,0,0,1,185.363,67.875Zm-.985-.14h0Zm4.466-.173-.007,0Zm-.2-.011a.823.823,0,0,0-.533-.167l.045,0A.858.858,0,0,1,188.641,67.55Zm-1.475-.055h0Zm3.576-.056a6.089,6.089,0,0,1,1.933-2.057l.039-.026c.2-.142.4-.282.6-.419.023-.015.044-.031.065-.047q.064-.053.124-.107l.015-.013c.028-.027.053-.054.081-.081-.023.026-.048.05-.075.075.027-.024.051-.048.075-.074a3.366,3.366,0,0,0,.914-2.413c.045-1.1.579-2.268-.063-3.318.643,1.05.106,2.219.063,3.316a3.361,3.361,0,0,1-.914,2.413,3.515,3.515,0,0,0,.571-1.68,3.511,3.511,0,0,1-.571,1.679c-.033.033-.061.063-.1.095a1.528,1.528,0,0,1-.188.153c-.217.144-.431.294-.642.445A6.1,6.1,0,0,0,190.742,67.439Zm-3.572-.016h0Zm-.045,0a18.067,18.067,0,0,1-2.872-.288A18.067,18.067,0,0,0,187.125,67.423Zm.671,0h0Zm.021,0,.025,0Zm.719-.014a.842.842,0,0,0-.474-.031c-.036.009-.074.01-.112.019.038-.008.076-.01.114-.018a.792.792,0,0,1,.182-.021A.89.89,0,0,1,188.536,67.4Zm-.654-.007.068-.005Zm-3.875-.3-.235-.04Zm-1.107-.187a18.638,18.638,0,0,0-3.041-.308A18.633,18.633,0,0,1,182.9,66.907ZM170.12,66.9c2.888-.234,5.8-.043,8.669-.25C175.915,66.855,173.008,66.666,170.12,66.9Zm14.779-.269Zm7.02-51.719c.005.267.006.532.019.8.229,5.34,1.114,10.616,1.676,15.92.362,3.435.512,6.86.537,10.3.036,4.75-.017,9.5-.055,14.253a5.027,5.027,0,0,0,.569,2.73c.693,1.2.057,2.52.023,3.781a3.952,3.952,0,0,1-2.416,3.512,3.953,3.953,0,0,0,2.418-3.512c.032-1.261.67-2.582-.025-3.781a5.008,5.008,0,0,1-.567-2.73c.036-4.753.089-9.5.054-14.253-.027-3.437-.174-6.862-.537-10.295-.562-5.306-1.446-10.583-1.675-15.923-.013-.264-.016-.531-.021-.8l.02.162-.02-.164a6.587,6.587,0,0,0-.2-1.7c-.085-.763-.162-1.528-.209-2.294.047.767.123,1.532.208,2.3a3.286,3.286,0,0,0-.263-.666v0a3.279,3.279,0,0,1,.263.665q.068.606.143,1.211-.074-.605-.142-1.212a6.649,6.649,0,0,1,.2,1.7Zm2.821,50.832,0,0Zm.007-.012.006-.01Zm.007-.012a2.131,2.131,0,0,0,.218-.7A2.133,2.133,0,0,1,194.753,65.72Zm.218-.7a3.408,3.408,0,0,1,.083-.376h0A3.3,3.3,0,0,0,194.972,65.015Zm.066-.182c0,.01,0,.021,0,.032,0-.01,0-.021,0-.032ZM3.548,64.557a1,1,0,0,0-.063-.386,1.024,1.024,0,0,1,.062.385Zm-.005,0,0,0h0l0,0a3.653,3.653,0,0,1-.552-.533A3.653,3.653,0,0,0,3.543,64.553ZM1.8,61.252a6.252,6.252,0,0,0,1.185,2.763v0A6.269,6.269,0,0,1,1.8,61.252L1.8,61.225Zm193.611,1.79a2.67,2.67,0,0,1-.076.557.865.865,0,0,0-.06.081.872.872,0,0,1,.059-.079v0a2.68,2.68,0,0,0,.076-.555c.011-1.242.479-2.56.22-3.774C195.893,60.484,195.425,61.8,195.415,63.042Zm-.483.375.013-.084ZM1.793,61.211c-.29-1.233-.6-2.46-.874-3.7.269,1.238.583,2.464.874,3.7Zm193.543-.96a4.862,4.862,0,0,0-.477-2.195h0A4.857,4.857,0,0,1,195.336,60.251ZM19.841,59.934c-2.073.1-2.194.156-2.793-1.558C17.646,60.09,17.768,60.035,19.841,59.934ZM70.4,59.97c-5.783.036-11.571-.161-17.36-.336C58.825,59.81,64.612,60.006,70.4,59.97Zm-7.615-.214q-1.04-.029-2.081-.071Q61.74,59.727,62.781,59.756Zm-3.336-.118c-5.235-.19-10.469-.267-15.7-.289C48.975,59.371,54.211,59.448,59.445,59.637Zm-7.052-.023q-6.055-.175-12.113-.175Q46.337,59.44,52.394,59.615Zm-3.567-.443c4.679,0,9.359.191,14.037.309,10.319.263,20.6-.423,30.886-1.065,2.3-.144,4.619-.1,6.931-.093,6.429.01,12.864-.066,19.274-.528,6.731-.484,13.444-1.2,20.167-1.784,1.885-.163,3.773-.291,5.659-.3,6.955-.042,13.906-.073,20.861-.261,2.356-.065,4.725.044,7.082.18,1.165.066,1.663-.362,1.7-1.411.114-2.979.456-5.951.329-8.935a68.905,68.905,0,0,1,.381-12.156c.568-4.234.4-8.48.577-12.721.084-1.982.291-3.963.516-5.937.1-.91-.205-1.2-1.149-1.165a80.675,80.675,0,0,1-14.255-.929,39.72,39.72,0,0,0-7.789.019c-3.538.214-7.085.259-10.627.429-5.92.285-11.845.246-17.768.206-4.96-.032-9.919-.065-14.874.093-18.826.6-37.656.336-56.483.525-7.612.076-15.219.333-22.832.487-.547.012-1.137.187-1.644-.187a76.693,76.693,0,0,0-7.8-.1,19.215,19.215,0,0,1-7.744-1.361c-.967-.407-1.186-.115-1.106.737.218,2.342.433,4.682.674,7.02a9.835,9.835,0,0,1,.12,2.559c-.3-1.869-.455-3.754-.609-5.638.152,1.883.308,3.767.608,5.638.066.534.16,1.065.2,1.6.346,5.172.37,10.363.88,15.528.6.978.431,2.1.534,3.141.287,3.011.436,6.034.61,9.054a26.283,26.283,0,0,0,1.211,6.106,1.6,1.6,0,0,0,1.928,1.277c5.551-.309,11.1-.377,16.656-.377C40.254,59.13,44.541,59.17,48.827,59.172Zm-18.207.2h0q2.674-.015,5.348-.025Q33.3,59.358,30.62,59.374Zm5.4-.026q2.056-.007,4.112-.008h0Q38.075,59.341,36.019,59.348ZM89.6,59.1c6.239-.3,12.481-.461,18.733-.394a118.931,118.931,0,0,0,13.883-.674,118.782,118.782,0,0,1-13.883.672q-1.413-.015-2.825-.015C100.2,58.685,94.9,58.841,89.6,59.1ZM.967,51.407a37.156,37.156,0,0,0,.8,7.682,37.157,37.157,0,0,1-.8-7.682c-.058-4.433.26-8.853.319-13.28C1.225,42.554.909,46.974.967,51.407ZM87.62,58.994l.937-.073ZM196,58.388c-.063.006-.125.009-.184.009Q195.908,58.4,196,58.388Zm-81.465-.055-1.616.055,1.618-.055c3.3-.115,6.587-.349,9.873-.641C121.126,57.983,117.834,58.218,114.538,58.333Zm7.681-.3q11.61-1.234,23.26-1.741Q133.827,56.776,122.219,58.029Zm72.541-.064a2.375,2.375,0,0,1-.327-.406A2.316,2.316,0,0,0,194.76,57.965Zm.214-.01a3.5,3.5,0,0,0-.385-.381A3.653,3.653,0,0,1,194.974,57.955Zm-1.285-.364h0a3.91,3.91,0,0,1-.122-1.012A3.919,3.919,0,0,0,193.688,57.591ZM.919,57.513q-.064-.3-.126-.6Q.854,57.214.919,57.513Zm192.8-.428v0c0-.1,0-.193,0-.29C193.719,56.893,193.718,56.989,193.718,57.085ZM.678,56.322a1.377,1.377,0,0,0-.2-.747A1.408,1.408,0,0,1,.678,56.322Zm193.178-.094Zm0,0c0-1.024.173-2.038.17-3.063C194.028,54.19,193.855,55.2,193.855,56.229Zm-177.5-.155a21.289,21.289,0,0,1-.554-3.572A21.269,21.269,0,0,0,16.359,56.073Zm159.567-.155a1.261,1.261,0,0,1-.439-.008A1.261,1.261,0,0,0,175.926,55.918Zm-.439-.008a2.8,2.8,0,0,0,.386-1.426c.164-1.421.255-2.844.3-4.267-.045,1.424-.135,2.848-.3,4.269a2.8,2.8,0,0,1-.385,1.422ZM154.4,55.889c1.98-.032,3.961-.065,5.941-.114C158.365,55.824,156.384,55.857,154.4,55.889Zm21.146-.626h0c-.316.418-.884.538-1.855.538C174.666,55.8,175.235,55.681,175.55,55.263Zm-15.2.513q.514-.013,1.028-.022Q160.858,55.763,160.345,55.775Zm9.038-.029q-2.05-.023-4.1-.026Q167.334,55.72,169.383,55.746ZM165.2,55.72h0Zm28.47-.384c.014-.1.025-.195.035-.291C193.7,55.142,193.686,55.24,193.672,55.336Zm-17.275,0a0,0,0,0,0,0,0A0,0,0,0,1,176.4,55.332Zm0-.006c.005-.035.009-.071.012-.109C176.407,55.255,176.4,55.291,176.4,55.326Zm1.688-41.462c-.516,5.539-.111,11.132-.676,16.627-.72,6.994-.646,13.968-.7,20.955-.01,1.27-.194,2.514-.295,3.77.1-1.256.284-2.5.295-3.768.059-6.989-.016-13.962.7-20.956.566-5.495.16-11.089.676-16.626q.02-.212.021-.4C178.106,13.592,178.1,13.724,178.086,13.864Zm-2.443,41.25a2.946,2.946,0,0,0,.239-1.327A2.955,2.955,0,0,1,175.643,55.114ZM194.317,53.9q-.009.054-.018.108.008-.054.018-.108Zm-.3-1.056ZM15.805,52.5c-.285-4.19-.521-8.382-.776-12.572C15.284,44.121,15.52,48.313,15.805,52.5Zm160.058-.944c.1-1.722.147-3.445.112-5.169C176.01,48.113,175.967,49.836,175.863,51.557Zm19.117-.919a6.557,6.557,0,0,0-.379-1.254h0A6.7,6.7,0,0,1,194.98,50.638Zm-1.043-.152q-.1-3.541-.067-7.083a3.512,3.512,0,0,0,.02-.515,3.349,3.349,0,0,1-.021.513h0C193.853,45.763,193.872,48.125,193.937,50.486Zm-.129-.712q-.029-.4-.068-.8v-.009c-.017-.171-.033-.341-.051-.51a14.354,14.354,0,0,1,.052-4.357v-.011l.009-.045-.009.045q0-1.248-.011-2.5h0q.008,1.249.011,2.5a14.426,14.426,0,0,0-.053,4.367c.02.173.036.347.052.521h0Q193.779,49.375,193.809,49.774Zm.489-1.068c.026.052.052.105.076.158-.025-.053-.051-.107-.076-.16q-.01-.083-.019-.167C194.285,48.593,194.291,48.65,194.3,48.706Zm-18.091,0a18.61,18.61,0,0,0,.017-1.875C176.252,47.461,176.24,48.085,176.207,48.71Zm0-2.233c0-.061,0-.122-.006-.183q-.016-1.263-.054-2.523c.009-1.414.054-2.826.031-4.237-.005-.305,0-.611,0-.915,0,.3-.005.608,0,.914.023,1.411-.021,2.822-.028,4.236,0-.03,0-.06,0-.091,0,.031,0,.062,0,.093q.035,1.26.054,2.524c-.042-.737-.056-1.474-.055-2.209,0,.736.012,1.472.055,2.209l0,.157,0-.157C176.2,46.356,176.2,46.416,176.2,46.477ZM194.6,43.314a2.161,2.161,0,0,0,.111-.678,2.159,2.159,0,0,1-.111.677Zm-18.414-8.228a47.057,47.057,0,0,0-.31,8.067,46.957,46.957,0,0,1,.312-8.067,84.018,84.018,0,0,0,.6-10.525A84.218,84.218,0,0,1,176.184,35.086Zm17.693,7.577h0c0-.007,0-.013,0-.02-.024-.292-.07-.583-.117-.873C193.806,42.067,193.853,42.364,193.876,42.663ZM176.1,42.292c0,.007,0,.013,0,.02s0-.015,0-.022q-.015-.46-.015-.92Q176.085,41.83,176.1,42.292ZM.672,41.922l0-.022c.651-2.671.094-5.376.206-8.066-.114,2.688.445,5.4-.208,8.066v.022Zm193.057-.345v0c0-.018-.006-.036-.009-.054C193.723,41.54,193.726,41.558,193.729,41.577Zm-.041-3.628c.019,1.046.028,2.09.037,3.136-.008-1.044-.017-2.09-.035-3.134a107.367,107.367,0,0,0-1.422-14.2l.006.048A107.075,107.075,0,0,1,193.688,37.949ZM15.029,39.929Zm178.617-1.013c-.007-1.57-.079-3.135-.194-4.7C193.567,35.782,193.639,37.347,193.646,38.917Zm-17.471-.3c.252-4.149.957-8.268.877-12.426,0-.017,0-.034,0-.052,0,.017,0,.034,0,.052.08,4.159-.628,8.278-.877,12.426ZM4.6,10.273C2.372,15.887,1.718,21.73,1.482,27.692c-.138,3.48-.149,6.956-.2,10.435.047-3.477.058-6.953.2-10.434.236-5.961.89-11.806,3.117-17.421a1.5,1.5,0,0,0,.142-.995.823.823,0,0,0-.061-.148.825.825,0,0,1,.06.148l-.034.057.035-.057A1.488,1.488,0,0,1,4.6,10.273ZM194.2,36.047v0Zm0-.445c.027-.269.09-.54.136-.81h0C194.29,35.062,194.227,35.332,194.2,35.6Zm.136-.821a2.252,2.252,0,0,0,.022-.784,2.311,2.311,0,0,1-.022.784Zm-.885-.589-.016-.212Zm.869-.369q0-.077,0-.153c0,.051,0,.1,0,.153Zm-.311-3.4,0-.006a1.206,1.206,0,0,1-.229-.494,1.522,1.522,0,0,0-.018-1.11v0a1.509,1.509,0,0,1,.017,1.1v0c-.022.09-.045.181-.065.272.02-.09.043-.18.065-.271A1.224,1.224,0,0,0,194.008,30.427Zm-.1-.428c0-.279.091-.569.091-.848C194,29.43,193.912,29.72,193.911,30Zm-.155-1.188h0a1.094,1.094,0,0,0-.079-.126A1.209,1.209,0,0,1,193.756,28.811Zm-.012-.29v0h0Zm-.34-.708c0-.022,0-.044,0-.066C193.4,27.769,193.4,27.791,193.4,27.813Zm.321-.1a1.179,1.179,0,0,1-.115-.531,1.179,1.179,0,0,0,.115.531Zm-.219-.539-.009-.042a4.112,4.112,0,0,0,.177-.974,4.112,4.112,0,0,1-.177.974c-.007-.034-.013-.068-.019-.1.005.035.011.07.019.1Zm-16.452-1.335c0-.018,0-.036,0-.053q-.006-.447-.005-.894,0,.448.005.9C177.054,25.8,177.054,25.816,177.054,25.833Zm0-.053c.027-1.191.033-2.383.045-3.576h0C177.086,23.395,177.081,24.588,177.054,25.779Zm16.408-.326c0,.047,0,.093.005.14,0-.047,0-.095-.005-.142,0-.006,0-.012,0-.018s0,.013,0,.019l-.025-.035Zm-.145-.779a4.006,4.006,0,0,0-.418-2.252v0a4,4,0,0,1,.418,2.247ZM192.1,22.657q.086.545.169,1.1l-.166-1.1c-.042-.273-.072-.547-.092-.82C192.03,22.109,192.059,22.382,192.1,22.657Zm.8-.235c0-.1-.008-.209-.008-.315,0,.1.006.209.008.315ZM1.4,21.969Zm190.589-.414c-.06-1.023-.031-2.05-.187-3.078-.061-.4-.1-.794-.135-1.193,0,.01,0,.021,0,.031.035.388.073.777.131,1.162.155,1.022.13,2.044.187,3.062C191.989,21.544,191.99,21.55,191.99,21.555Zm.886-.1a5.27,5.27,0,0,1,.031-.574l0,.011c-.015.188-.031.375-.03.56Zm.031-.574a1.514,1.514,0,0,0,.04-.355,1.514,1.514,0,0,1-.04.355Zm0,0c.014-.172.029-.343.03-.513h0C192.935,20.54,192.921,20.712,192.906,20.884ZM13.525,20.346c.006.041.01.082.014.124,0-.042-.008-.084-.014-.126-.331-2.3-.506-4.612-.7-6.923C13.019,15.732,13.194,18.048,13.525,20.346Zm179.412-.011a1.636,1.636,0,0,0-.316-1.047A1.639,1.639,0,0,1,192.937,20.335ZM1.911,18.019q.3-1.6.728-3.171A44.121,44.121,0,0,1,4.654,9.417a43.834,43.834,0,0,0-2.01,5.413l-.005.019q-.431,1.569-.728,3.171Zm189.756-.735s0,0,0-.006c-.048-.545-.086-1.093-.109-1.642h0Q191.593,16.462,191.668,17.284ZM177.39,15.5q-.03.2-.058.4c.019-.132.038-.265.058-.4.008-.054.01-.072.01-.074S177.4,15.445,177.39,15.5Zm13.969-1.813c.085.631.146,1.262.2,1.894v0c-.048-.632-.111-1.261-.194-1.89a3.137,3.137,0,0,0-.208-.783A3.169,3.169,0,0,1,191.359,13.684ZM177.4,15.434s0,0,0,0S177.4,15.437,177.4,15.434Zm.212-.768c.214-1.287-.256-1.651-1.585-1.722h.305c.926,0,1.371.1,1.374.961,0-.857-.447-.962-1.374-.962l-.305,0c-.04,0-.072-.007-.115-.009-.631-.024-1.262-.02-1.894-.015-.315,0-.631,0-.946,0a44.293,44.293,0,0,1-6.465-.308,44.221,44.221,0,0,0,6.465.31c.312,0,.624,0,.936,0,.634,0,1.269-.009,1.9.016.041,0,.075.005.115.008a56.627,56.627,0,0,1-10.593-.5,35.935,35.935,0,0,0-6.352-.493h0a35.833,35.833,0,0,1,6.352.492,56.462,56.462,0,0,0,10.593.5C177.353,13.014,177.82,13.379,177.608,14.666ZM12.924,13.042a5.131,5.131,0,0,0,.067,1.24,5.132,5.132,0,0,1-.066-1.24c.062-.723.348-1.156,1.17-.857a1.38,1.38,0,0,0-.468-.1C13.159,12.088,12.975,12.476,12.924,13.042Zm164.527.979c-.058-.875-.516-.893-2.222-.839-.44.014-.879.021-1.317.021q.658,0,1.318-.021c.317-.01.592-.018.828-.018C177.091,13.164,177.4,13.308,177.451,14.021Zm-139-.255c4.906-.209,9.832-.234,14.746-.277-4.916.042-9.84.065-14.747.276-2.883.124-5.758.21-8.639.181C32.691,13.975,35.568,13.889,38.45,13.766Zm-5.093.065,2.479-.082h0l-2.5.081a22.373,22.373,0,0,1-3.425-.268,9.562,9.562,0,0,0-1.695-.124c-.965-.014-1.932-.005-2.9,0a50.631,50.631,0,0,1-6.939-.25,50.665,50.665,0,0,0,6.931.251c.969-.009,1.939-.018,2.907,0a9.208,9.208,0,0,1,1.695.124,22.327,22.327,0,0,0,3.425.266h.025Zm.479,0c.631-.006,1.261-.033,1.888-.073C35.1,13.8,34.468,13.823,33.837,13.83Zm2.006-.081h0q.231-.015.464-.033Zm1.22-.04,3.258-.106Zm7.857-.241c-.656.019-1.312.026-1.967.03.539,0,1.078-.009,1.617-.02l.4-.01c8.409-.233,16.819-.263,25.229-.263h-.043C61.745,13.2,53.332,13.234,44.92,13.468Zm63.906-.521c-18.544.583-37.088.374-55.631.542,18.543-.166,37.086.043,55.631-.541,5.247-.166,10.5-.133,15.755-.1,2.146.013,4.292.027,6.438.027-2.145,0-4.291-.013-6.436-.027s-4.29-.027-6.435-.027C115.04,12.82,111.932,12.849,108.827,12.947Zm-55.056.368c11.369-.125,22.741-.013,34.109-.125h0c4.43-.044,8.864-.117,13.3-.258,2.994-.094,5.99-.151,8.985-.187,7.462-.088,14.924-.029,22.385-.01-7.461-.02-14.922-.079-22.385.01,4.873-.143,9.749-.11,14.623-.076,4.363.03,8.725.059,13.087-.036,1.195-.026,2.391-.066,3.587-.11l.182-.008c2.04-.076,4.079-.173,6.118-.275h0c-2.038.1-4.078.2-6.117.275-1.254.046-2.511.09-3.77.117-4.357.1-8.717.066-13.075.036-4.877-.033-9.756-.066-14.634.078-3,.034-5.99.091-8.985.187-4.433.141-8.867.214-13.3.256q-5.12.026-10.241.019,5.121,0,10.241-.018C76.512,13.3,65.14,13.19,53.771,13.315Zm-35.4-.122-.067-.009Zm154.423,0h0Zm-.176,0h0Zm-154.334,0-.051-.007Zm154.188,0-.057,0Zm-10.464-1.008c3.45.422,6.88.889,10.347,1-3.466-.115-6.9-.583-10.347-1.005q-.274-.033-.548-.06Q161.733,12.138,162.007,12.172Zm-143.817,1-.031,0Zm-.081-.011-.022,0Zm76.638-.027Zm-81.961-.173c-.006-.07-.01-.138-.012-.2C12.775,12.82,12.779,12.888,12.785,12.958Zm93.441-.055Zm84.937-4.922c-.175,1.637-.769,3.282-.01,4.92-.759-1.638-.162-3.284.01-4.92Zm-53.847,4.842.621-.012Zm7.133-.248c-2.167.117-4.335.191-6.5.236,2.169-.045,4.338-.119,6.506-.236,2.638-.142,5.283-.106,7.922-.326C149.734,12.468,147.09,12.431,144.449,12.574Zm-110.664.109q-.557-.014-1.114-.017Q33.228,12.669,33.785,12.683Zm-1.248-.018h0Zm-18.347-.79c.694.188,1.39.342,2.087.469-.7-.127-1.393-.281-2.086-.469a3.109,3.109,0,0,0-.507-.1A3.126,3.126,0,0,1,14.19,11.876Zm138.182.373c1.787-.149,3.59-.273,5.385-.288.244,0,.486,0,.73,0h0c-.242,0-.485,0-.73,0C155.963,11.975,154.161,12.1,152.373,12.248Zm2.476-.37c-2.312.112-4.621.234-6.931.353,2.311-.117,4.62-.241,6.931-.353Zm6.648.011-.136-.009Zm-.306-.02q-.6-.037-1.2-.057Q160.592,11.833,161.191,11.87Zm-3.125-.083h0Zm-55.692-.135q-.543.025-1.087.044.543-.02,1.087-.044Zm1.664-.068h0Zm57.385-.251a1.722,1.722,0,0,0,.176.2,1.7,1.7,0,0,1-.175-.2l-.04-.049Zm6.49.091Zm-4.328-.545c-.089-.01-.187-.031-.286-.045C163.4,10.847,163.5,10.869,163.585,10.879Zm-3.374-.022.025,0-.024,0c-.323-.039-.647-.067-.97-.088Q159.726,10.8,160.211,10.857Zm31.512-.256a1.551,1.551,0,0,1-.086-.332A1.482,1.482,0,0,0,191.724,10.6Zm-.106-.569a2.438,2.438,0,0,1,.218-.949h0A2.442,2.442,0,0,0,191.617,10.031ZM4.275,10Zm.466-.727c.675-1.072,1.286-2.178,2.047-3.2C6.027,7.1,5.416,8.206,4.74,9.278ZM191.718,8.24a.213.213,0,0,0-.006.025.182.182,0,0,1,.006-.023,3.041,3.041,0,0,0,.142-.867A3.031,3.031,0,0,1,191.718,8.24ZM189.53,6.065c1.538.136,1.771.3,1.667,1.573.1-1.271-.126-1.438-1.665-1.574a8.875,8.875,0,0,1-4.633-1.4A8.885,8.885,0,0,0,189.53,6.065ZM12.744,5.8a3.907,3.907,0,0,0,1.521-.06h-.01a3.861,3.861,0,0,1-1.5.06h-.005l-.009,0h-.269C12.561,5.8,12.653,5.794,12.744,5.8Zm-.285,0h0Zm-2.042-.647a5.672,5.672,0,0,0,1.989.646,5.693,5.693,0,0,1-1.989-.647,3.417,3.417,0,0,0-1.954-.518,1.419,1.419,0,0,1,.25-.021A4.247,4.247,0,0,1,10.418,5.147Zm3.848.588c.271-.026.542-.059.817-.107C18.845,4.956,22.6,4.255,26.4,3.809c-3.8.446-7.554,1.145-11.319,1.818-.273.049-.546.083-.817.109Zm.625-.119c.972-.17,1.943-.344,2.915-.516C16.833,5.272,15.862,5.447,14.89,5.617Zm2.312-.6A119.087,119.087,0,0,1,31.88,3.23c6.554-.28,13.1-.677,19.657-.944,5.936-.242,11.872-.24,17.808-.239h1.62c3.551,0,7.1-.062,10.648-.141h0c-3.55.078-7.1.141-10.648.141H69.254c-5.906,0-11.811,0-17.719.24-6.553.268-13.1.662-19.655.942A119.062,119.062,0,0,0,17.2,5.013c-1.674.281-3.334.856-5.073.469C13.867,5.872,15.528,5.295,17.2,5.013Zm172.776.333h0c-.017-.028-.034-.054-.051-.08C189.944,5.293,189.961,5.319,189.977,5.347Zm-1.07-.176h0Zm-.139,0-.128-.005Zm.245,0c.088,0,.177-.007.265-.011C189.19,5.162,189.1,5.166,189.013,5.169Zm1.023-.01a1.648,1.648,0,0,0-.2-.012h0C189.905,5.149,189.97,5.152,190.036,5.158Zm-1.524,0a1.951,1.951,0,0,1-.227-.04A1.951,1.951,0,0,0,188.512,5.154Zm1.326-.007h0c-.046,0-.092,0-.139,0Zm-1.662-.062.116-.045-.116.044a1.481,1.481,0,0,1-.412-.194,1.5,1.5,0,0,0,.412.2ZM186.561,5l0,0Zm-.017-.009,0,0Zm-.017-.009-.008,0Zm-.017-.01-.01-.005Zm1.72-.01h0Zm-.075,0a1.053,1.053,0,0,1-.391-.077A1.053,1.053,0,0,0,188.156,4.965Zm-1.662,0-.011-.007Zm-.017-.01-.01-.006Zm-.017-.01-.013-.008Zm2.036,0,.076-.011h0Zm-2.053-.006-.013-.008Zm-.017-.011-.013-.009Zm-.017-.011L186.4,4.9Zm-.017-.011-.01-.007Zm-.017-.012-.01-.007Zm-.017-.012-.015-.011Zm-.016-.012-.033-.025Zm-1.445-.2Zm1.429-.079a.747.747,0,0,1-.391-.055l0,0A.744.744,0,0,0,186.328,4.587Zm-1.363-.022-.017.027.019-.027h0c.022-.033.045-.068.065-.1a.654.654,0,0,0-.108.083,1.1,1.1,0,0,0-.309-.336c0-.019,0-.037,0-.055,0,.018,0,.035,0,.054-.025-.015-.041-.037-.066-.052l-.047-.018.045.018a.629.629,0,0,1,.066.052.93.93,0,0,1-.015.171.928.928,0,0,0,.017-.171,1.1,1.1,0,0,1,.309.336.332.332,0,0,1-.1.018.32.32,0,0,0,.1-.018Zm.891-.063a3.181,3.181,0,0,0-.3-.109A3.181,3.181,0,0,1,185.856,4.5Zm-.826-.034.012-.017Zm.02-.014.026-.016Zm-.008,0,.023-.032Zm.025-.034.01-.013Zm.014-.019.007-.01Zm.452-.01a.824.824,0,0,0-.111-.021A.824.824,0,0,1,185.533,4.388Zm-1.455-.057.517.054c-.174-.019-.344-.038-.517-.055-.206-.11-.411-.222-.615-.334.2.113.409.225.615.335Zm.517.054a.889.889,0,0,0-.121-.169A.931.931,0,0,1,184.6,4.386Zm.5-.006,0-.006Zm.012-.015,0,0Zm.232,0h0Zm-3.988-1.322c.059,0,.118.009.178.012a4.059,4.059,0,0,0,2.55,1.279,4.063,4.063,0,0,1-2.55-1.28l.052,0-.052,0c-.059,0-.117-.011-.178-.011-.749-.166-1.5-.335-2.25-.475l-.07-.011C179.807,2.7,180.579,2.869,181.351,3.041Zm3.106,1.088-.105-.035c-.064-.058-.134-.112-.2-.165.07.053.139.107.2.165ZM184,4a2.3,2.3,0,0,1-.363-.075A2.3,2.3,0,0,0,184,4Zm-.63-.165A12.2,12.2,0,0,1,182.15,3.2,11.658,11.658,0,0,0,183.368,3.834ZM26.651,3.781c.647-.064,1.3-.122,1.947-.165-.648.043-1.3.1-1.941.164Zm157.788-.069a4.351,4.351,0,0,0-.756-.49c-.06.012-.121.023-.18.03a.815.815,0,0,1-.053-.244.842.842,0,0,0,.053.246c.059-.009.12-.019.18-.031A4.429,4.429,0,0,1,184.439,3.712Zm.131-.325a.736.736,0,0,0-.825-.178,1.794,1.794,0,0,1,.346-.045A.583.583,0,0,1,184.571,3.387Zm-1.257-.12h0a5.631,5.631,0,0,1-.872-.1A5.6,5.6,0,0,0,183.313,3.267Zm-.87-.1a2.37,2.37,0,0,0-.405-.109,2.488,2.488,0,0,1,.405.109Zm0,0c-.174-.029-.346-.058-.52-.083l-.029-.012.029.013h0C182.1,3.111,182.271,3.138,182.443,3.167Zm-.52-.082c-.114-.017-.229-.022-.342-.03C181.694,3.063,181.809,3.07,181.923,3.085Zm-.394-.034a.475.475,0,0,0-.036-.033Zm.015-.012a.528.528,0,0,0-.051-.022l-.01,0,.01,0Zm.24-.013c-.073-.031-.147-.062-.223-.089v0c.076.025.151.056.224.087Zm-.224-.087Zm-130.608-.5.911-.027-.911.027Zm23.713-.142q-1.922-.011-3.842-.01Q72.744,2.284,74.664,2.294Zm-10.832,0q-1.776,0-3.552-.008Q62.056,2.293,63.832,2.292ZM60.28,2.284h0Zm116.059-.036c.158,0,.314.016.47.029-.156-.014-.312-.027-.47-.03a2.96,2.96,0,0,1-.519-.069h-.008A2.794,2.794,0,0,0,176.339,2.248ZM57.484,2.265l-.192,0Zm117.592-.333a3.8,3.8,0,0,0,.736.246,3.868,3.868,0,0,1-.736-.247h0l-.351-.024a3.46,3.46,0,0,1-.605.148q-1.157-.065-2.316-.1a49.013,49.013,0,0,0-7.219-.191c-3.229.063-6.39-.5-9.586-.723a67.8,67.8,0,0,0-10.957.056h0l-.085.008a7.089,7.089,0,0,1-.988.082c-.267-.012-.534-.017-.8-.024-3.053.112-6.106.258-9.159.394-2.542.115-5.09.131-7.639.127,2.549.005,5.1-.01,7.639-.126,3.053-.136,6.107-.282,9.16-.393.268.006.535.01.8.023a6.916,6.916,0,0,0,.988-.081l.087-.008h0A67.615,67.615,0,0,1,155,1.041c3.194.217,6.354.785,9.583.724a48.746,48.746,0,0,1,7.219.19h0l.479.062-.477-.062c.772.024,1.541.055,2.313.1a3.46,3.46,0,0,0,.605-.148Zm-.958.124a4.6,4.6,0,0,1-.687.048A4.59,4.59,0,0,0,174.117,2.055ZM78.7,2.074q1.476-.022,2.954-.047L78.7,2.074Zm4.273-.063c.1,0,.205,0,.307,0,1.565.019,3.128-.029,4.692-.085q6.288-.109,12.576-.216h.063l1.163-.02c3.731-.062,7.462-.046,11.194-.032,2.089.008,4.178.017,6.267.012,2.043,0,4.087.012,6.13.015,2.185-.037,4.371-.09,6.556-.173-2.186.083-4.371.134-6.556.171-2.043,0-4.087-.02-6.13-.015-2.092.005-4.185,0-6.276-.011-3.729-.015-7.457-.029-11.185.031l-1.225.021h-.067l-12.51.214h0c-1.562.058-3.125.1-4.689.085-.1,0-.207,0-.31,0s-.208,0-.311,0C82.761,2.014,82.867,2.012,82.971,2.011Zm-.327,0h0Zm-.313-.019a1.6,1.6,0,0,1-.394-.1h-.006l-.294,0h0l.295,0A1.655,1.655,0,0,0,82.331,1.994Zm1.788-.008,3.638-.062Zm70.273-.96c2.235.055,4.406.524,6.624.659,3.585.221,7.191.16,10.784.27-3.593-.112-7.2-.049-10.782-.27-2.218-.136-4.389-.606-6.625-.659q-1.81-.043-3.618-.042Q152.584.984,154.393,1.026Zm20.587.865c.031.013.063.025.094.039-.03-.014-.063-.026-.094-.04l-.144-.019h0c-.646-.094-1.294-.167-1.942-.224.647.057,1.294.13,1.94.224-.031.011-.064.02-.1.03.032-.01.065-.019.1-.03ZM81.867,1.868h0a1.31,1.31,0,0,1-.227-.127A1.426,1.426,0,0,0,81.867,1.868Zm11.211-.246Q89.7,1.7,86.332,1.79q3.373-.086,6.747-.168Zm70.959-.015h0a28,28,0,0,1-3.985-.169A27.891,27.891,0,0,0,164.038,1.607Zm-35.333-.132c5.237-.067,10.467-.481,15.706-.629a87.049,87.049,0,0,1,13.6.283,86.958,86.958,0,0,0-13.6-.283c-5.237.148-10.467.562-15.706.628-4.53.058-9.06.054-13.59.042C119.643,1.528,124.175,1.533,128.705,1.475Zm3.381.028c3.354-.136,6.708-.432,10.074-.341h0q-.663-.018-1.324-.018C137.914,1.144,135,1.385,132.086,1.5Zm34.043-.04h-.013q.649,0,1.3,0-.65,0-1.3,0-.492,0-.983-.013.492.008.983.013ZM92.691,1.416l-.769.012.768-.012h.086c2.815-.109,5.63-.226,8.451-.218,5.2.014,10.4.005,15.595,0q2,0,4.008,0c3.574,0,7.147.01,10.72-.037h0c-3.528.045-7.056.04-10.583.035q-2.073,0-4.146,0c-5.2,0-10.4.012-15.6,0h-.208C98.24,1.194,95.467,1.311,92.691,1.416Zm38.862-.251h0c3.3-.117,6.6-.281,9.905-.417h0C138.156.883,134.855,1.048,131.552,1.165Zm10.654,0q.9-.033,1.795-.062Q143.1,1.125,142.206,1.16ZM156.456.8,156.2.781l-.007,0c-1.847-.168-3.7-.239-5.561-.243C147.983.527,145.339.6,142.7.7c2.644-.1,5.287-.172,7.933-.165,1.863,0,3.716.076,5.567.246Zm38.507,51.649a5.783,5.783,0,0,1-.357,1.309v-.355a4.225,4.225,0,0,0,.364-1,4.356,4.356,0,0,0,.013-1.773,10.629,10.629,0,0,0-.381-1.749,3.87,3.87,0,0,1,.005,4.875A5.787,5.787,0,0,0,194.963,52.453Z" transform="translate(0.001 0)" fill="#ff5200" stroke="rgba(0,0,0,0)" stroke-miterlimit="10" stroke-width="1"/>
  </g>
</svg>
