<svg xmlns="http://www.w3.org/2000/svg" width="142" height="49.172" viewBox="0 0 142 49.172">
  <g id="knap" transform="translate(-215.011 234.809)">
    <path id="Union_5" data-name="Union 5" d="M-9276.605-969.113h-13.583a3.064,3.064,0,0,0-1.032-.166l-.091,0h-.007c-2.621-.164-5.255-.174-7.807-.182-1.514,0-3.079-.01-4.609-.048-3.025-.076-5.994-.144-9.013-.144l-.877,0c-1.217,0-2.41.1-3.562.188s-2.262.178-3.353.178c-.2,0-.4,0-.606-.01-1.109-.036-2.416-.088-3.723-.2-.037,0-.079,0-.122-.01l-.028-.032-.5-.589-.187-.02-.035-.014-2.342-.97-.115.795-.521-.178c-.676-.232-1.354-.465-2.023-.715a6.679,6.679,0,0,1-1.671-1.094l-.134-.108-.154-.084c-.206-.108-.311-.435-.485-1.1l-.051-.184c-.247-.94-.481-1.883-.715-2.827l-.25-1.016v-7.877a9.421,9.421,0,0,0,.326-3.123c-.1-2.182-.018-4.433.065-6.607l.026-.717a36.637,36.637,0,0,0-.214-4.469c-.243-2.817-.5-5.729.39-7.809.074-.174.135-.353.2-.533.033-.1.076-.224.109-.3l.277-.2.2-.377a17.069,17.069,0,0,1,1.412-2.154c.269.114.535.238.8.359l.423.194.34.154.378.024c.259.014.513.024.771.024a23.651,23.651,0,0,0,4.776-.629c.462-.1.924-.19,1.388-.274a59.136,59.136,0,0,1,6.708-.689l1.354-.09c11.313-.783,22.86-.819,33.047-.853.358,0,.714-.02,1.076-.044l.419-.022.938-.044.1-.126c.115,0,.229,0,.344,0,.943,0,1.863-.06,2.752-.118.624-.042,1.247-.084,1.87-.1,4.939-.146,9.852-.174,15.707-.174h3l3,0c2.7,0,5.885,0,9.09-.042.86-.01,1.725-.044,2.589-.078.838-.034,1.675-.068,2.514-.078l-.013-.877.047,0,.054.879a2.8,2.8,0,0,0,1.452-.359h8.45a3.984,3.984,0,0,0,2.109.5h.132l.113,0h.072a1.114,1.114,0,0,1,.119.006,32.093,32.093,0,0,0,4.321.234l.341,0h.353c.608,0,1.254,0,2.006.028.2.006.395.012.595.014a8.452,8.452,0,0,1,2.338.254l.165.054.174.026c.457.07.92.126,1.379.182.718.086,1.406.17,2.055.3a2.174,2.174,0,0,0,1.363.453h0a2.8,2.8,0,0,0,.337.23l.027.138.652.4a3.562,3.562,0,0,0,1.932.511c.063,0,.126,0,.193,0a2.579,2.579,0,0,0,.477-.052l.489.15c.237.07.468.132.689.19s.5.13.658.19a1.847,1.847,0,0,1,.012.3l-.021.563.011.016-.011.022-.245.475.078.521a8.358,8.358,0,0,1-.273,2.767,13.933,13.933,0,0,0-.381,2.909l.011,1.026.152.08.016.425.006.182.009.19.02.547.357.441a2.252,2.252,0,0,1,.177.246l-.175.305v.441a3.167,3.167,0,0,0,.025.373l.018.146a2.231,2.231,0,0,0-.485,1.511l0,.212.007.272.027,1.134.157.06a1.514,1.514,0,0,0,.012.238l.006.068.207,1.959.1.934.09.046-.006.068v.088a8.085,8.085,0,0,1-.265,1.725,10.9,10.9,0,0,0-.34,2.438l.011.685-.011.012v4.908l.424.481a.98.98,0,0,1,.08,1.036l-.5.5,0,.675,0,1.3-.009,1.3,0,1,.934.513.074.042v1.737a2.871,2.871,0,0,0-.395,1.362,3.129,3.129,0,0,0-1.45,1.01c.215.076-1.537.447-1.537.447a2.212,2.212,0,0,0-.261-.016l-.392,0-.093.036a3.532,3.532,0,0,0-1.529-.323l-.121,0c-.364.01-.7.014-1.014.014-1.09,0-1.894-.05-2.747-.1s-1.73-.106-2.87-.106c-.435,0-.907.008-1.431.026l-2.374,0-1.2,0-.239.459a15.862,15.862,0,0,1-1.914.134,7.2,7.2,0,0,1-1.954-.242,5.294,5.294,0,0,0-1.3-.158c-.094,0-.186,0-.273-.01l-.083-.006h-.081l-2.644.006h-.168l-.89,0-.362.4-.342-.232-.639.006-.636.006-.167,0-1.064.012-.354.539-.062,0-.1,0c-.922.05-1.827.144-2.705.234-.835.084-1.629.166-2.381.212l-.049-.018a3.575,3.575,0,0,0-1.271-.256h-.1l-.354,0-1.229.026-.086.174-.125-.02-.191,0-.589.006-1.255.026-.1.2-.04-.008-.211-.042-.216,0-.657.006-.344,0-.961.008-.238.305-.251-.146-.567.006-.589.006-.816.008-1.81.018-.024.521-.1.012a12.788,12.788,0,0,1-1.46.122,4.573,4.573,0,0,1-.466-.024,22.008,22.008,0,0,0-2.407-.106l-.579,0-.56,0-.354,0q-.926-.006-1.849-.006c-.762,0-1.521,0-2.279.006h-.143l-.337-.377-.911.006-.808.006-.891.008-.379.417-.018,0a4.435,4.435,0,0,0-1.074.3Z" transform="translate(9555.223 781.976)" fill="none" stroke="#dedc00" stroke-width="3"/>
  </g>
</svg>
