<svg xmlns="http://www.w3.org/2000/svg" width="139.728" height="47.969" viewBox="0 0 139.728 47.969">
  <g id="knap" transform="translate(-246.303 228.969)">
    <path id="Union_6" data-name="Union 6" d="M-9320.841-895.281h-14.643a3.466,3.466,0,0,0-1.116-.172l-.1,0h-.007c-2.825-.17-5.668-.179-8.416-.186-1.635-.007-3.325-.012-4.974-.049-3.262-.08-6.462-.148-9.719-.148l-.944,0c-1.312,0-2.6.1-3.841.193s-2.439.181-3.617.181c-.217,0-.433,0-.654-.009-1.2-.038-2.6-.089-4.013-.2-.04,0-.085,0-.13-.009l-.03-.033-.537-.608-.2-.019-.037-.014-2.527-1-.125.817-.561-.184c-.728-.238-1.46-.478-2.183-.735a7.22,7.22,0,0,1-1.8-1.126l-.144-.111-.167-.085c-.224-.111-.334-.447-.522-1.135l-.055-.191c-.269-.966-.521-1.936-.77-2.906l-.271-1.043v-8.1a9.242,9.242,0,0,0,.352-3.21c-.108-2.244-.017-4.559.07-6.794l.03-.735a36.557,36.557,0,0,0-.23-4.6c-.264-2.9-.537-5.89.419-8.028.08-.177.146-.363.21-.546.037-.1.082-.231.117-.308l.3-.2.214-.389a17.02,17.02,0,0,1,1.521-2.216c.289.118.577.245.864.37l.459.2.365.158.407.024c.28.016.556.024.831.024a26.7,26.7,0,0,0,5.15-.645c.5-.1,1-.2,1.5-.28a66.539,66.539,0,0,1,7.236-.709l1.463-.092c12.2-.805,24.648-.843,35.632-.876.386,0,.772-.023,1.161-.045l.452-.024,1.015-.045.1-.132c.125,0,.247,0,.372,0,1.015,0,2.009-.061,2.967-.12.671-.042,1.345-.085,2.019-.1,5.324-.151,10.62-.181,16.934-.181l3.238,0,3.24,0c2.908,0,6.347-.007,9.8-.045.928-.009,1.857-.045,2.79-.08.9-.035,1.809-.071,2.711-.08l-.013-.9c.02,0,.031,0,.05,0l.057.9a3.143,3.143,0,0,0,1.568-.37h9.111a4.466,4.466,0,0,0,2.272.511h.344a1.138,1.138,0,0,1,.129,0,36.314,36.314,0,0,0,4.658.24h.749c.657,0,1.354,0,2.162.028l.643.014a9.4,9.4,0,0,1,2.522.261l.174.054.188.026c.494.073.991.13,1.488.188.772.087,1.517.174,2.216.311a2.428,2.428,0,0,0,1.47.466h0a2.984,2.984,0,0,0,.362.235l.03.144.7.414a4.01,4.01,0,0,0,2.082.523c.068,0,.137,0,.21,0a2.722,2.722,0,0,0,.511-.054l.529.153c.255.073.5.137.742.2s.537.134.714.2a2.2,2.2,0,0,1,.009.308l-.019.579.012.014-.012.024-.269.487.085.537a8.119,8.119,0,0,1-.294,2.845,13.8,13.8,0,0,0-.41,2.993l.012,1.053.165.082.017.438.007.188.007.193.023.563.384.454a2.323,2.323,0,0,1,.193.252l-.19.313v.455a3.578,3.578,0,0,0,.025.384l.021.151a2.216,2.216,0,0,0-.525,1.554l.008.214.007.28.028,1.166.169.064a1.893,1.893,0,0,0,.012.243l.008.071.224,2.013.1.961.1.047-.007.068v.092a8.164,8.164,0,0,1-.287,1.773,10.777,10.777,0,0,0-.365,2.508l.012.7-.012.012v5.047l.459.5a.967.967,0,0,1,.085,1.064l-.534.513,0,.692,0,1.333-.01,1.335,0,1.024,1.006.528.08.042v1.787a2.89,2.89,0,0,0-.426,1.4,3.392,3.392,0,0,0-1.562,1.041c.23.078-1.658.459-1.658.459a2.221,2.221,0,0,0-.282-.019l-.422,0-.1.035a4,4,0,0,0-1.65-.332l-.127,0c-.394.012-.756.014-1.095.014-1.035,0-1.834-.039-2.638-.085h-8.868l-.208.379a18.309,18.309,0,0,1-2.065.137,8.183,8.183,0,0,1-2.107-.247,5.947,5.947,0,0,0-1.405-.162c-.1,0-.2,0-.3-.012l-.087,0h-.088l-2.854.007h-.18l-.958,0-.391.41-.37-.235-.687,0-.687.007-.179,0-1.147.009-.381.556-.068,0-.108,0c-.994.049-1.974.146-2.918.238-.9.089-1.757.172-2.569.219l-.049-.019a4.03,4.03,0,0,0-1.376-.264l-.1,0h-.01l-.379,0-1.323.028-.095.179-.134-.023-.208,0-.636.007-1.352.024-.1.21-.045-.009-.226-.042-.233,0-.709,0-.369,0-1.036.009-.26.313-.269-.151-.614.007-.634,0-.878.009-1.952.019-.028.535-.106.014a14.336,14.336,0,0,1-1.572.122c-.168,0-.332-.007-.5-.024a24.925,24.925,0,0,0-2.595-.108l-.627,0-.6,0-.382,0c-.666,0-1.328-.007-1.994-.007-.819,0-1.64,0-2.456.007h-.155l-.363-.389-.984.007-.869.007-.96.007-.408.429-.019,0a4.84,4.84,0,0,0-1.161.313Z" transform="translate(9629.272 713.782)" fill="#ff5200"/>
  </g>
</svg>
