<svg xmlns="http://www.w3.org/2000/svg" width="56.391" height="60" viewBox="0 0 56.391 60">
  <g id="cookies" transform="translate(-184 -374)">
    <g id="Group_82" data-name="Group 82">
      <circle id="Ellipse_20" data-name="Ellipse 20" cx="20" cy="20" r="20" transform="translate(184 394)" fill="#dedc00" opacity="0.996"/>
      <circle id="Ellipse_21" data-name="Ellipse 21" cx="18" cy="18" r="18" transform="translate(185 378)" fill="#dedc00" opacity="0.996"/>
      <circle id="Ellipse_22" data-name="Ellipse 22" cx="18" cy="18" r="18" transform="translate(200 378)" fill="#dedc00" opacity="0.996"/>
      <circle id="Ellipse_23" data-name="Ellipse 23" cx="18" cy="18" r="18" transform="translate(200 394)" fill="#dedc00" opacity="0.996"/>
    </g>
    <g id="cookies-2" data-name="cookies" transform="translate(182 370.452)">
      <path id="Path_988" data-name="Path 988" d="M42.489,14.912C47.665,13.36,39.6,3.821,37.14,8.406c.548,1.457,2.855.184,3.821,1.5,2.147,1.2.239,3.81,1.527,5Z" fill="#004243"/>
      <path id="Path_989" data-name="Path 989" d="M45.547,10.2c2.959-.4-1.65-6.358-1.638-2.283C44.263,8.529,44.571,10.3,45.547,10.2Z" fill="#004243"/>
      <path id="Path_990" data-name="Path 990" d="M30.3,18.4c5.175-.308,2.026-8.25-1.973-4.76A2.807,2.807,0,0,0,30.3,18.4Zm-.559-3.346a.79.79,0,1,1,0,1.117.79.79,0,0,1,0-1.117Z" fill="#004243"/>
      <path id="Path_991" data-name="Path 991" d="M26.836,8.948c-1.862,3.593,1.232,4.621,1.9.633a1,1,0,1,0-1.9-.633Z" fill="#004243"/>
      <path id="Path_992" data-name="Path 992" d="M13.232,22.286c1.562.09,4.755-2.257,1.582-2.582C13.485,19.8,10.691,21.5,13.232,22.286Z" fill="#004243"/>
      <path id="Path_993" data-name="Path 993" d="M37.59,14.009c-1.4-.931-4.717-.759-2.53,1.265l1.9.633a1,1,0,1,0,.633-1.9Z" fill="#004243"/>
      <path id="Path_994" data-name="Path 994" d="M53.068,38.278c-4.193-1.916-7.053,4.385-2.963,6.514C54.293,46.715,57.16,40.408,53.068,38.278Zm.287,4.123c-1.134,2.392-4.6.7-3.536-1.732A1.969,1.969,0,1,1,53.355,42.4Z" fill="#004243"/>
      <path id="Path_995" data-name="Path 995" d="M45.084,47.147c-.437,1.55.942,4.724,2.047,1.954C47.569,47.536,46.2,44.388,45.084,47.147Z" fill="#004243"/>
      <path id="Path_996" data-name="Path 996" d="M52.487,35.378c1.669-.057,4.122-3.87.954-3.023C52.461,32.932,50.183,34.893,52.487,35.378Z" fill="#004243"/>
      <path id="Path_997" data-name="Path 997" d="M41.539,21.117c-1.347-.639-2.966,2.793-1.618,3.427S42.891,21.751,41.539,21.117Z" fill="#004243"/>
      <path id="Path_998" data-name="Path 998" d="M5.621,40.55C5.006,58.273,28.787,67.376,40.21,54.187,55.974,55.7,62.629,37.727,55.6,26.624c2.393-.441,1.765-13.035-3.148-18.392C45.913,1.75,33.035,3.181,31.253,5.5c-12.159-3.854-30.5,6.983-23,22.587a1,1,0,0,0,.964-1.269C3.876,4.931,35.6-.316,40.029,18.4c-4.3.317-8.108,1.811-7.964,3.276C20.721,18.027,6.291,24.308,5.621,40.55ZM40.8,15.32c-1.465-3.445-3.7-7.055-6.888-8.673,11.029-6.062,25,6.021,20.231,17.912-3.082-3.807-7.466-6.513-12.811-6.216A7.008,7.008,0,0,0,40.8,15.32Zm.934,37.028a19.923,19.923,0,0,0,2.808-18.076c12.6,1.9,3.834-18.959-3.736-6.829a18.9,18.9,0,0,0-7-5.116C57.115,10.8,67.743,50.888,41.734,52.348Zm.412-23.122c.238-2.584,2.77-4.573,5.215-3.357,4.252,2.343,1.24,8.5-3.423,6.748a19.438,19.438,0,0,0-1.792-3.391ZM25.621,22.55c9.911-.532,19.249,8.154,18,18C40.73,63.342,20.835,61.844,11.943,52.328c-8.593-9.2-6.9-28.673,13.678-29.778Z" fill="#004243"/>
      <path id="Path_999" data-name="Path 999" d="M33.914,31.257a1,1,0,1,0,1.414-1.414l-2-2a1,1,0,1,0-1.414,1.414Z" fill="#004243"/>
      <path id="Path_1000" data-name="Path 1000" d="M19.515,29.1c-1.339-4.148-4.3-2.655-1.789.895a1,1,0,1,0,1.789-.895Z" fill="#004243"/>
      <path id="Path_1001" data-name="Path 1001" d="M17.068,45.656c-1.357-.675-3.249,3.108-1.895,3.789S18.425,46.337,17.068,45.656Z" fill="#004243"/>
      <path id="Path_1002" data-name="Path 1002" d="M37.621,45.55c-.716.1-2.641-.364-2.924.625C32.324,49.675,41.807,47.513,37.621,45.55Z" fill="#004243"/>
      <path id="Path_1003" data-name="Path 1003" d="M35.621,49.55c-1.5,0-1.5,4,0,4S37.124,49.55,35.621,49.55Z" fill="#004243"/>
      <path id="Path_1004" data-name="Path 1004" d="M27.622,26.55c1.547-.026,4.963-2.962,1.552-2.895C28.005,24.006,25.039,25.808,27.622,26.55Z" fill="#004243"/>
      <path id="Path_1005" data-name="Path 1005" d="M29.621,35.55c-1.373-.3-6.246.213-3,2C27.994,37.848,32.867,37.337,29.621,35.55Z" fill="#004243"/>
      <path id="Path_1006" data-name="Path 1006" d="M24.621,40.55c.479-1.547-.839-4.721-2-2C22.141,40.1,23.46,43.271,24.621,40.55Z" fill="#004243"/>
      <path id="Path_1007" data-name="Path 1007" d="M24.777,33.686c2.815-.324,3.688-5.843.135-4.913C20.557,26.649,19.86,34.983,24.777,33.686ZM23.32,30.053a1.009,1.009,0,0,1,1.154-.383C27.731,32.186,21.072,33.246,23.32,30.053Z" fill="#004243"/>
      <path id="Path_1008" data-name="Path 1008" d="M32.406,36.925A3.741,3.741,0,0,0,36.9,42.46C44.369,38.631,37.115,31.763,32.406,36.925ZM37.758,38.3a.132.132,0,0,1-.009-.051.172.172,0,0,1,.009.051Zm-.7-.671c.208.135.5.212.637.417-.005-.02.084.153.026.073-.21,4.912-7.143,1.569-2.592-1.6.2.774,1.343.686,1.929,1.107Z" fill="#004243"/>
      <path id="Path_1009" data-name="Path 1009" d="M37.717,38.119a.2.2,0,0,0-.026-.073.249.249,0,0,0,.026.073Z" fill="#004243"/>
      <path id="Path_1010" data-name="Path 1010" d="M17.613,41.18c4.063-2.52-.805-11.337-3.964-6.564C6.55,35.152,12.558,45.706,17.613,41.18Zm-.879-2.336C16.711,38.893,16.678,38.957,16.733,38.843Zm-3-3.472a.374.374,0,0,0,.325-.1c.58.55,1.687.12,2.068.663.961,1.2,1.154,3.418-.592,4.1C12.687,41.568,10.184,35.726,13.735,35.371Z" fill="#004243"/>
      <path id="Path_1011" data-name="Path 1011" d="M25.111,43.707a1.048,1.048,0,0,0-.684,1.091c-9.249,3.279-3.563,14.609,4.81,9.2C35.179,51.276,31.1,41.6,25.111,43.707Zm4.705,6.279c-4.364,7.444-12.764.455-5.107-4.622,2.493.664,5.318,1.285,5.107,4.622Z" fill="#004243"/>
      <path id="Path_1012" data-name="Path 1012" d="M21.1,18.691c4.673-1.648,3.08-9.47-2.012-7.271C12.449,11.689,14.226,21.349,21.1,18.691Zm-.44-5.336ZM18.7,12.48c.307.956,1.71.718,2.494,1.027-.037.013.329.226.119.043,1.015,1.023.057,2.732-1.1,3.226C16.915,18.425,15.246,13.761,18.7,12.48Z" fill="#004243"/>
      <path id="Path_1013" data-name="Path 1013" d="M46.2,17.2c2.981,4.784,8.588-4.845,2.945-4.952C46.965,11.543,44.822,14.54,46.2,17.2Zm.946-1.48C47.147,15.7,47.148,15.7,47.15,15.719Zm.066.287C47.229,16.045,47.244,16.112,47.216,16.006Zm.544.608C47.821,16.639,47.791,16.629,47.76,16.613Zm.668.114C48.461,16.722,48.527,16.719,48.428,16.727Zm.413-.142C48.808,16.6,48.766,16.615,48.841,16.585Zm-.282-3.212c.226.894,1.7.532,1.544,1.554-1.446,4.107-5.018.08-1.544-1.554Z" fill="#004243"/>
      <path id="Path_1014" data-name="Path 1014" d="M48.486,35.319a2.318,2.318,0,0,0-1.615,1.675C47,39.646,50.518,35.535,48.486,35.319Z" fill="#004243"/>
      <path id="Path_1015" data-name="Path 1015" d="M39.987,34.918c1.257.4.9-1.936.29-2.372C38.661,31.964,39.135,34.4,39.987,34.918Z" fill="#004243"/>
      <path id="Path_1016" data-name="Path 1016" d="M28.677,40.021c-1.034.39-.417,1.371.169,1.868l-.129-.167C31.274,45.453,31.3,40.025,28.677,40.021Z" fill="#004243"/>
      <path id="Path_1017" data-name="Path 1017" d="M18.991,43.135c-1.234.179-1.136,2.036.173,1.54C20.213,44.321,20.36,42.641,18.991,43.135Z" fill="#004243"/>
      <path id="Path_1018" data-name="Path 1018" d="M12.757,43.533c-1.037.587-1.054,2.49.386,1.691C14.287,44.453,14.538,42.1,12.757,43.533Z" fill="#004243"/>
    </g>
  </g>
</svg>
