<svg xmlns="http://www.w3.org/2000/svg" width="51" height="51" viewBox="0 0 51 51">
  <g id="Group_23" data-name="Group 23" transform="translate(-90 -8023)">
    <circle id="Ellipse_14" data-name="Ellipse 14" cx="25.5" cy="25.5" r="25.5" transform="translate(90 8023)" fill="#fff"/>
    <g id="Icon_feather-instagram" data-name="Icon feather-instagram" transform="translate(104.5 8037.099)">
      <path id="Path_18" data-name="Path 18" d="M8.7,3H20.1a5.7,5.7,0,0,1,5.7,5.7V20.1a5.7,5.7,0,0,1-5.7,5.7H8.7A5.7,5.7,0,0,1,3,20.1V8.7A5.7,5.7,0,0,1,8.7,3Z" transform="translate(-3 -3)" fill="none" stroke="#343333" stroke-linecap="round" stroke-linejoin="round" stroke-width="3"/>
      <path id="Path_19" data-name="Path 19" d="M21.136,15.826a4.56,4.56,0,1,1-3.842-3.842,4.56,4.56,0,0,1,3.842,3.842Z" transform="translate(-5.175 -5.144)" fill="none" stroke="#343333" stroke-linecap="round" stroke-linejoin="round" stroke-width="3"/>
      <path id="Path_20" data-name="Path 20" d="M26.25,9.75h0" transform="translate(-8.579 -4.62)" fill="none" stroke="#343333" stroke-linecap="round" stroke-linejoin="round" stroke-width="3"/>
    </g>
  </g>
</svg>
