<?xml version="1.0" encoding="utf-8"?>
<!-- Generator: Adobe Illustrator 26.3.1, SVG Export Plug-In . SVG Version: 6.00 Build 0)  -->
<svg version="1.1" id="Layer_1" xmlns="http://www.w3.org/2000/svg" xmlns:xlink="http://www.w3.org/1999/xlink" x="0px" y="0px"
	 viewBox="0 0 407.3 226.7" style="enable-background:new 0 0 407.3 226.7;" xml:space="preserve">
<style type="text/css">
	.st0{fill:#ffffff;}
</style>
<g>
	<rect x="215.7" y="101.8" class="st0" width="18.6" height="56.7"/>
	<rect x="262.5" y="76.1" class="st0" width="18.6" height="53.7"/>
	<rect x="239.1" y="76.1" class="st0" width="18.6" height="82.4"/>
	<g>
		<path class="st0" d="M102.1,146.7c4.5,9.5,13.3,13.3,25,13.3c11.4,0,24.1-4.8,24.1-18.8c0-21.2-27.7-16.2-27.7-22.4
			c0-1.7,1.6-2.7,4.1-2.7c3.1,0,5.4,1.7,6.9,4.8l15.7-7c-4.6-9.2-13-13-23-13c-11.4,0-22.5,6.1-22.5,18.8
			c0,19.8,27.3,16.1,27.3,21.9c0,2-1.8,3-5,3c-4.4,0-7.3-2-8.7-6.1L102.1,146.7z"/>
	</g>
	<rect x="262.5" y="134.5" class="st0" width="18.6" height="24"/>
	<path class="st0" d="M225,95.2c5.3,0,9.8-4.5,9.8-9.8s-4.5-9.7-9.8-9.7s-9.8,4.4-9.8,9.7S219.7,95.2,225,95.2"/>
	<g>
		<polygon class="st0" points="308.5,89.2 304.5,89.2 304.5,54.1 95.7,54.1 95.7,50.1 308.5,50.1 		"/>
	</g>
	<g>
		<polygon class="st0" points="95.6,134.3 72.5,134.3 72.5,111.3 76.5,111.3 76.5,130.3 95.6,130.3 		"/>
	</g>
	<g>
		<path class="st0" d="M83.9,91.5c0-3.2-1.6-6-4.1-7.5l-2,3.5c1.4,0.8,2.2,2.3,2.2,4.1c0,3.1-2.1,5.1-5.2,5.1c-3.1,0-5.2-2-5.2-5.1
			c0-1.8,0.8-3.3,2.2-4.1l-2-3.5c-2.5,1.5-4.1,4.3-4.1,7.5c0,5.3,4,9.1,9.1,9.1C79.9,100.6,83.9,96.7,83.9,91.5"/>
		<path class="st0" d="M74.3,73.4V76h-4.5v-2.6c0-1.2,1-2.1,2.3-2.1C73.3,71.3,74.3,72.2,74.3,73.4 M66,73.4V80h17.5v-4H78v-2.6
			c0-3.5-2.7-6.1-6-6.1C68.7,67.3,66,70,66,73.4"/>
	</g>
	<polygon class="st0" points="66,50.1 66,54.1 72.7,54.1 72.7,59.6 66,59.6 66,63.6 83.6,63.6 83.6,59.6 76.6,59.6 76.6,54.1 
		83.6,54.1 83.6,50.1 	"/>
	<g>
		<rect x="154.2" y="79.5" class="st0" width="18.7" height="79"/>
	</g>
	<polygon class="st0" points="211.3,101.8 191.3,101.8 172.9,129.8 192.6,129.8 	"/>
	<polygon class="st0" points="212.1,158.5 192.9,134.5 172.9,134.5 191.3,158.5 	"/>
	<g>
		<path class="st0" d="M283.1,146.7c4.5,9.5,13.3,13.3,25,13.3c11.4,0,24.1-4.8,24.1-18.8c0-21.2-27.7-16.2-27.7-22.4
			c0-1.7,1.6-2.7,4.1-2.7c3.1,0,5.4,1.7,6.9,4.8l15.7-7c-4.6-9.2-13-13-23-13c-11.4,0-22.5,6.1-22.5,18.8
			c0,19.8,27.3,16.1,27.3,21.9c0,2-1.8,3-5,3c-4.4,0-7.3-2-8.7-6.1L283.1,146.7z"/>
	</g>
</g>
<g>
	<path class="st0" d="M234.3,172.3c0,5.4-3.8,8.7-8.7,8.7c-5.6,0-9.6-4.1-9.6-9.2c0-5.1,4.1-9.3,9.3-9.3c3.4,0,6.3,1.7,7.8,4.1
		l-3.4,2c-0.7-1.2-2.3-2.1-4.3-2.1c-3,0-5.2,2.2-5.2,5.3c0,3,2.1,5.2,5.6,5.2c2.4,0,3.9-1,4.5-2.7h-4.7v-3.6h8.9V172.3z"/>
	<path class="st0" d="M236.9,175v-12h4.1v11.7c0,1.3,0.6,2.5,2.8,2.5s2.8-1.1,2.8-2.5v-11.7h4.1v12c0,3.8-2.9,6.1-6.8,6.1
		S236.9,178.8,236.9,175z"/>
	<path class="st0" d="M258.2,162.9v17.8h-4.1v-17.8H258.2z"/>
	<path class="st0" d="M277.5,171.8c0,5-3.7,8.9-8.6,8.9h-7.1v-17.8h7.1C273.8,162.9,277.5,166.8,277.5,171.8z M273.6,171.8
		c0-3-1.9-5-4.7-5h-3v9.9h3C271.7,176.8,273.6,174.9,273.6,171.8z"/>
	<path class="st0" d="M291.6,176.8v3.9h-11.2v-17.8h11v3.9h-7v2.9h6.3v3.9h-6.3v3.1H291.6z"/>
	<path class="st0" d="M308.4,162.9v17.8h-3l-6.8-9.6v9.6h-4.1v-17.8h3l6.8,9.6v-9.6H308.4z"/>
</g>
</svg>
