<svg xmlns="http://www.w3.org/2000/svg" xmlns:xlink="http://www.w3.org/1999/xlink" width="136.531" height="56.146" viewBox="0 0 136.531 56.146">
  <defs>
    <clipPath id="clip-path">
      <rect id="Rectangle_23" data-name="Rectangle 23" width="136.531" height="56.145" fill="none"/>
    </clipPath>
  </defs>
  <g id="Group_22" data-name="Group 22" transform="translate(0 -0.002)">
    <path id="Path_8" data-name="Path 8" d="M83.82.016V1.964h107.13V20.01H192.9V.016Z" transform="translate(-68.475 -0.011)" fill="#fff"/>
    <path id="Path_9" data-name="Path 9" d="M30.959,182.472H19.178V170.71h1.949v9.813h9.831Z" transform="translate(-15.667 -139.457)" fill="#fff"/>
    <rect id="Rectangle_18" data-name="Rectangle 18" width="9.219" height="11.988" transform="translate(101.05 43.384)" fill="#fff"/>
    <rect id="Rectangle_19" data-name="Rectangle 19" width="9.219" height="28.751" transform="translate(77.046 26.621)" fill="#fff"/>
    <rect id="Rectangle_20" data-name="Rectangle 20" width="9.219" height="27.242" transform="translate(101.05 13.423)" fill="#fff"/>
    <rect id="Rectangle_21" data-name="Rectangle 21" width="9.219" height="41.949" transform="translate(89.048 13.423)" fill="#fff"/>
    <g id="Group_21" data-name="Group 21" transform="translate(0 0.002)">
      <g id="Group_20" data-name="Group 20" clip-path="url(#clip-path)">
        <path id="Path_10" data-name="Path 10" d="M117.526,172.99c-6.351,0-10.487-2.159-12.638-6.6l8.024-4.039a4.482,4.482,0,0,0,4.557,3.091c2.259,0,2.734-.925,2.734-1.7,0-1.167-1.8-1.632-4.085-2.22-4.179-1.078-9.9-2.554-9.9-9.016,0-6.512,5.894-9.478,11.369-9.478,5.506,0,9.407,2.161,11.6,6.422l-7.745,3.486a3.92,3.92,0,0,0-3.625-2.419c-1.4,0-2.275.586-2.275,1.529,0,1.226,1.819,1.645,4.122,2.176,4.261.984,10.1,2.33,10.1,9.29,0,6.987-6.318,9.477-12.229,9.477" transform="translate(-85.686 -116.845)" fill="#fff"/>
        <path id="Path_11" data-name="Path 11" d="M622.6,172.99c-6.351,0-10.487-2.159-12.638-6.6l8.024-4.039a4.483,4.483,0,0,0,4.557,3.091c2.259,0,2.733-.925,2.733-1.7,0-1.167-1.8-1.632-4.085-2.22-4.179-1.078-9.9-2.554-9.9-9.016,0-6.512,5.894-9.478,11.369-9.478,5.505,0,9.407,2.161,11.6,6.422l-7.745,3.486a3.92,3.92,0,0,0-3.625-2.419c-1.4,0-2.275.586-2.275,1.529,0,1.226,1.819,1.645,4.121,2.176,4.261.984,10.1,2.33,10.1,9.29,0,6.987-6.318,9.477-12.229,9.477" transform="translate(-498.298 -116.845)" fill="#fff"/>
        <rect id="Rectangle_22" data-name="Rectangle 22" width="9.296" height="40.187" transform="translate(45.869 15.154)" fill="#fff"/>
        <path id="Path_12" data-name="Path 12" d="M301.584,159.465l9.224-14.041H320.7l-9.389,14.041Z" transform="translate(-246.374 -118.802)" fill="#fff"/>
        <path id="Path_13" data-name="Path 13" d="M310.936,248.936l-9.187-11.961h9.877l9.573,11.961Z" transform="translate(-246.508 -193.593)" fill="#fff"/>
        <path id="Path_14" data-name="Path 14" d="M424.222,81.883a4.858,4.858,0,1,1,4.859-4.858,4.864,4.864,0,0,1-4.859,4.858" transform="translate(-342.592 -58.955)" fill="#fff"/>
        <path id="Path_15" data-name="Path 15" d="M.98,54.46V51.111a3.029,3.029,0,1,1,6.057,0v1.348l.052.051H9.86v1.95Zm3.029-4.491A1.15,1.15,0,0,0,2.8,51.111v1.348l.052.051h2.31l.052-.051V51.111a1.15,1.15,0,0,0-1.207-1.142" transform="translate(-0.801 -39.228)" fill="#fff"/>
        <path id="Path_16" data-name="Path 16" d="M.98,6.827V4.877H4.368l.052-.051V2l-.052-.051H.98V0H9.86V1.951H6.344L6.293,2V4.825l.051.051H9.86v1.95Z" transform="translate(-0.801 0)" fill="#fff"/>
        <path id="Path_17" data-name="Path 17" d="M4.619,103.24A4.518,4.518,0,0,1,0,98.62a4.413,4.413,0,0,1,2.01-3.778l.975,1.681A2.391,2.391,0,0,0,1.9,98.62a2.526,2.526,0,0,0,2.72,2.669A2.526,2.526,0,0,0,7.34,98.62a2.365,2.365,0,0,0-1.085-2.1l.975-1.68A4.382,4.382,0,0,1,9.239,98.62a4.518,4.518,0,0,1-4.62,4.62" transform="translate(0 -77.48)" fill="#fff"/>
      </g>
    </g>
  </g>
</svg>
